G04 #@! TF.GenerationSoftware,KiCad,Pcbnew,(6.0.2)*
G04 #@! TF.CreationDate,2022-04-27T10:37:17-07:00*
G04 #@! TF.ProjectId,Serial programmer,53657269-616c-4207-9072-6f6772616d6d,rev?*
G04 #@! TF.SameCoordinates,Original*
G04 #@! TF.FileFunction,AssemblyDrawing,Top*
%FSLAX46Y46*%
G04 Gerber Fmt 4.6, Leading zero omitted, Abs format (unit mm)*
G04 Created by KiCad (PCBNEW (6.0.2)) date 2022-04-27 10:37:17*
%MOMM*%
%LPD*%
G01*
G04 APERTURE LIST*
%ADD10C,0.150000*%
%ADD11C,0.100000*%
G04 APERTURE END LIST*
D10*
X201052380Y-72259047D02*
X201052380Y-72830476D01*
X201052380Y-72544761D02*
X200052380Y-72544761D01*
X200195238Y-72640000D01*
X200290476Y-72735238D01*
X200338095Y-72830476D01*
X200052380Y-71640000D02*
X200052380Y-71544761D01*
X200100000Y-71449523D01*
X200147619Y-71401904D01*
X200242857Y-71354285D01*
X200433333Y-71306666D01*
X200671428Y-71306666D01*
X200861904Y-71354285D01*
X200957142Y-71401904D01*
X201004761Y-71449523D01*
X201052380Y-71544761D01*
X201052380Y-71640000D01*
X201004761Y-71735238D01*
X200957142Y-71782857D01*
X200861904Y-71830476D01*
X200671428Y-71878095D01*
X200433333Y-71878095D01*
X200242857Y-71830476D01*
X200147619Y-71782857D01*
X200100000Y-71735238D01*
X200052380Y-71640000D01*
X200052380Y-70687619D02*
X200052380Y-70592380D01*
X200100000Y-70497142D01*
X200147619Y-70449523D01*
X200242857Y-70401904D01*
X200433333Y-70354285D01*
X200671428Y-70354285D01*
X200861904Y-70401904D01*
X200957142Y-70449523D01*
X201004761Y-70497142D01*
X201052380Y-70592380D01*
X201052380Y-70687619D01*
X201004761Y-70782857D01*
X200957142Y-70830476D01*
X200861904Y-70878095D01*
X200671428Y-70925714D01*
X200433333Y-70925714D01*
X200242857Y-70878095D01*
X200147619Y-70830476D01*
X200100000Y-70782857D01*
X200052380Y-70687619D01*
X200385714Y-69497142D02*
X201052380Y-69497142D01*
X200385714Y-69925714D02*
X200909523Y-69925714D01*
X201004761Y-69878095D01*
X201052380Y-69782857D01*
X201052380Y-69640000D01*
X201004761Y-69544761D01*
X200957142Y-69497142D01*
X197207142Y-71306666D02*
X197254761Y-71354285D01*
X197302380Y-71497142D01*
X197302380Y-71592380D01*
X197254761Y-71735238D01*
X197159523Y-71830476D01*
X197064285Y-71878095D01*
X196873809Y-71925714D01*
X196730952Y-71925714D01*
X196540476Y-71878095D01*
X196445238Y-71830476D01*
X196350000Y-71735238D01*
X196302380Y-71592380D01*
X196302380Y-71497142D01*
X196350000Y-71354285D01*
X196397619Y-71306666D01*
X197302380Y-70354285D02*
X197302380Y-70925714D01*
X197302380Y-70640000D02*
X196302380Y-70640000D01*
X196445238Y-70735238D01*
X196540476Y-70830476D01*
X196588095Y-70925714D01*
X178677619Y-71044285D02*
X178630000Y-70996666D01*
X178582380Y-70901428D01*
X178582380Y-70663333D01*
X178630000Y-70568095D01*
X178677619Y-70520476D01*
X178772857Y-70472857D01*
X178868095Y-70472857D01*
X179010952Y-70520476D01*
X179582380Y-71091904D01*
X179582380Y-70472857D01*
X178677619Y-70091904D02*
X178630000Y-70044285D01*
X178582380Y-69949047D01*
X178582380Y-69710952D01*
X178630000Y-69615714D01*
X178677619Y-69568095D01*
X178772857Y-69520476D01*
X178868095Y-69520476D01*
X179010952Y-69568095D01*
X179582380Y-70139523D01*
X179582380Y-69520476D01*
X178915714Y-68663333D02*
X179582380Y-68663333D01*
X178915714Y-69091904D02*
X179439523Y-69091904D01*
X179534761Y-69044285D01*
X179582380Y-68949047D01*
X179582380Y-68806190D01*
X179534761Y-68710952D01*
X179487142Y-68663333D01*
X183237142Y-69996666D02*
X183284761Y-70044285D01*
X183332380Y-70187142D01*
X183332380Y-70282380D01*
X183284761Y-70425238D01*
X183189523Y-70520476D01*
X183094285Y-70568095D01*
X182903809Y-70615714D01*
X182760952Y-70615714D01*
X182570476Y-70568095D01*
X182475238Y-70520476D01*
X182380000Y-70425238D01*
X182332380Y-70282380D01*
X182332380Y-70187142D01*
X182380000Y-70044285D01*
X182427619Y-69996666D01*
X182427619Y-69615714D02*
X182380000Y-69568095D01*
X182332380Y-69472857D01*
X182332380Y-69234761D01*
X182380000Y-69139523D01*
X182427619Y-69091904D01*
X182522857Y-69044285D01*
X182618095Y-69044285D01*
X182760952Y-69091904D01*
X183332380Y-69663333D01*
X183332380Y-69044285D01*
X170937619Y-111724285D02*
X170890000Y-111676666D01*
X170842380Y-111581428D01*
X170842380Y-111343333D01*
X170890000Y-111248095D01*
X170937619Y-111200476D01*
X171032857Y-111152857D01*
X171128095Y-111152857D01*
X171270952Y-111200476D01*
X171842380Y-111771904D01*
X171842380Y-111152857D01*
X170937619Y-110771904D02*
X170890000Y-110724285D01*
X170842380Y-110629047D01*
X170842380Y-110390952D01*
X170890000Y-110295714D01*
X170937619Y-110248095D01*
X171032857Y-110200476D01*
X171128095Y-110200476D01*
X171270952Y-110248095D01*
X171842380Y-110819523D01*
X171842380Y-110200476D01*
X171175714Y-109771904D02*
X172175714Y-109771904D01*
X171223333Y-109771904D02*
X171175714Y-109676666D01*
X171175714Y-109486190D01*
X171223333Y-109390952D01*
X171270952Y-109343333D01*
X171366190Y-109295714D01*
X171651904Y-109295714D01*
X171747142Y-109343333D01*
X171794761Y-109390952D01*
X171842380Y-109486190D01*
X171842380Y-109676666D01*
X171794761Y-109771904D01*
X167997142Y-110676666D02*
X168044761Y-110724285D01*
X168092380Y-110867142D01*
X168092380Y-110962380D01*
X168044761Y-111105238D01*
X167949523Y-111200476D01*
X167854285Y-111248095D01*
X167663809Y-111295714D01*
X167520952Y-111295714D01*
X167330476Y-111248095D01*
X167235238Y-111200476D01*
X167140000Y-111105238D01*
X167092380Y-110962380D01*
X167092380Y-110867142D01*
X167140000Y-110724285D01*
X167187619Y-110676666D01*
X167092380Y-110343333D02*
X167092380Y-109724285D01*
X167473333Y-110057619D01*
X167473333Y-109914761D01*
X167520952Y-109819523D01*
X167568571Y-109771904D01*
X167663809Y-109724285D01*
X167901904Y-109724285D01*
X167997142Y-109771904D01*
X168044761Y-109819523D01*
X168092380Y-109914761D01*
X168092380Y-110200476D01*
X168044761Y-110295714D01*
X167997142Y-110343333D01*
X170937619Y-104104285D02*
X170890000Y-104056666D01*
X170842380Y-103961428D01*
X170842380Y-103723333D01*
X170890000Y-103628095D01*
X170937619Y-103580476D01*
X171032857Y-103532857D01*
X171128095Y-103532857D01*
X171270952Y-103580476D01*
X171842380Y-104151904D01*
X171842380Y-103532857D01*
X170937619Y-103151904D02*
X170890000Y-103104285D01*
X170842380Y-103009047D01*
X170842380Y-102770952D01*
X170890000Y-102675714D01*
X170937619Y-102628095D01*
X171032857Y-102580476D01*
X171128095Y-102580476D01*
X171270952Y-102628095D01*
X171842380Y-103199523D01*
X171842380Y-102580476D01*
X171175714Y-102151904D02*
X172175714Y-102151904D01*
X171223333Y-102151904D02*
X171175714Y-102056666D01*
X171175714Y-101866190D01*
X171223333Y-101770952D01*
X171270952Y-101723333D01*
X171366190Y-101675714D01*
X171651904Y-101675714D01*
X171747142Y-101723333D01*
X171794761Y-101770952D01*
X171842380Y-101866190D01*
X171842380Y-102056666D01*
X171794761Y-102151904D01*
X167997142Y-103056666D02*
X168044761Y-103104285D01*
X168092380Y-103247142D01*
X168092380Y-103342380D01*
X168044761Y-103485238D01*
X167949523Y-103580476D01*
X167854285Y-103628095D01*
X167663809Y-103675714D01*
X167520952Y-103675714D01*
X167330476Y-103628095D01*
X167235238Y-103580476D01*
X167140000Y-103485238D01*
X167092380Y-103342380D01*
X167092380Y-103247142D01*
X167140000Y-103104285D01*
X167187619Y-103056666D01*
X167425714Y-102199523D02*
X168092380Y-102199523D01*
X167044761Y-102437619D02*
X167759047Y-102675714D01*
X167759047Y-102056666D01*
X176859523Y-77767142D02*
X176811904Y-77814761D01*
X176669047Y-77862380D01*
X176573809Y-77862380D01*
X176430952Y-77814761D01*
X176335714Y-77719523D01*
X176288095Y-77624285D01*
X176240476Y-77433809D01*
X176240476Y-77290952D01*
X176288095Y-77100476D01*
X176335714Y-77005238D01*
X176430952Y-76910000D01*
X176573809Y-76862380D01*
X176669047Y-76862380D01*
X176811904Y-76910000D01*
X176859523Y-76957619D01*
X176383333Y-74017142D02*
X176335714Y-74064761D01*
X176192857Y-74112380D01*
X176097619Y-74112380D01*
X175954761Y-74064761D01*
X175859523Y-73969523D01*
X175811904Y-73874285D01*
X175764285Y-73683809D01*
X175764285Y-73540952D01*
X175811904Y-73350476D01*
X175859523Y-73255238D01*
X175954761Y-73160000D01*
X176097619Y-73112380D01*
X176192857Y-73112380D01*
X176335714Y-73160000D01*
X176383333Y-73207619D01*
X177288095Y-73112380D02*
X176811904Y-73112380D01*
X176764285Y-73588571D01*
X176811904Y-73540952D01*
X176907142Y-73493333D01*
X177145238Y-73493333D01*
X177240476Y-73540952D01*
X177288095Y-73588571D01*
X177335714Y-73683809D01*
X177335714Y-73921904D01*
X177288095Y-74017142D01*
X177240476Y-74064761D01*
X177145238Y-74112380D01*
X176907142Y-74112380D01*
X176811904Y-74064761D01*
X176764285Y-74017142D01*
X201182380Y-65642857D02*
X201182380Y-66214285D01*
X201182380Y-65928571D02*
X200182380Y-65928571D01*
X200325238Y-66023809D01*
X200420476Y-66119047D01*
X200468095Y-66214285D01*
X201182380Y-65214285D02*
X200182380Y-65214285D01*
X201182380Y-64642857D01*
X200182380Y-64642857D01*
X200515714Y-63738095D02*
X201182380Y-63738095D01*
X200134761Y-63976190D02*
X200849047Y-64214285D01*
X200849047Y-63595238D01*
X200182380Y-63023809D02*
X200182380Y-62928571D01*
X200230000Y-62833333D01*
X200277619Y-62785714D01*
X200372857Y-62738095D01*
X200563333Y-62690476D01*
X200801428Y-62690476D01*
X200991904Y-62738095D01*
X201087142Y-62785714D01*
X201134761Y-62833333D01*
X201182380Y-62928571D01*
X201182380Y-63023809D01*
X201134761Y-63119047D01*
X201087142Y-63166666D01*
X200991904Y-63214285D01*
X200801428Y-63261904D01*
X200563333Y-63261904D01*
X200372857Y-63214285D01*
X200277619Y-63166666D01*
X200230000Y-63119047D01*
X200182380Y-63023809D01*
X200182380Y-62071428D02*
X200182380Y-61976190D01*
X200230000Y-61880952D01*
X200277619Y-61833333D01*
X200372857Y-61785714D01*
X200563333Y-61738095D01*
X200801428Y-61738095D01*
X200991904Y-61785714D01*
X201087142Y-61833333D01*
X201134761Y-61880952D01*
X201182380Y-61976190D01*
X201182380Y-62071428D01*
X201134761Y-62166666D01*
X201087142Y-62214285D01*
X200991904Y-62261904D01*
X200801428Y-62309523D01*
X200563333Y-62309523D01*
X200372857Y-62261904D01*
X200277619Y-62214285D01*
X200230000Y-62166666D01*
X200182380Y-62071428D01*
X200182380Y-61404761D02*
X200182380Y-60738095D01*
X201182380Y-61166666D01*
X205752380Y-58681904D02*
X204752380Y-58681904D01*
X205752380Y-58110476D02*
X205180952Y-58539047D01*
X204752380Y-58110476D02*
X205323809Y-58681904D01*
X193492380Y-76938095D02*
X192492380Y-76938095D01*
X192492380Y-76700000D01*
X192540000Y-76557142D01*
X192635238Y-76461904D01*
X192730476Y-76414285D01*
X192920952Y-76366666D01*
X193063809Y-76366666D01*
X193254285Y-76414285D01*
X193349523Y-76461904D01*
X193444761Y-76557142D01*
X193492380Y-76700000D01*
X193492380Y-76938095D01*
X193492380Y-75414285D02*
X193492380Y-75985714D01*
X193492380Y-75700000D02*
X192492380Y-75700000D01*
X192635238Y-75795238D01*
X192730476Y-75890476D01*
X192778095Y-75985714D01*
X167961904Y-54752380D02*
X167485714Y-54752380D01*
X167485714Y-53752380D01*
X168295238Y-54228571D02*
X168628571Y-54228571D01*
X168771428Y-54752380D02*
X168295238Y-54752380D01*
X168295238Y-53752380D01*
X168771428Y-53752380D01*
X169200000Y-54752380D02*
X169200000Y-53752380D01*
X169438095Y-53752380D01*
X169580952Y-53800000D01*
X169676190Y-53895238D01*
X169723809Y-53990476D01*
X169771428Y-54180952D01*
X169771428Y-54323809D01*
X169723809Y-54514285D01*
X169676190Y-54609523D01*
X169580952Y-54704761D01*
X169438095Y-54752380D01*
X169200000Y-54752380D01*
X169961904Y-54847619D02*
X170723809Y-54847619D01*
X170914285Y-54466666D02*
X171390476Y-54466666D01*
X170819047Y-54752380D02*
X171152380Y-53752380D01*
X171485714Y-54752380D01*
X172295238Y-54752380D02*
X171819047Y-54752380D01*
X171819047Y-53752380D01*
X172485714Y-53752380D02*
X173057142Y-53752380D01*
X172771428Y-54752380D02*
X172771428Y-53752380D01*
X172646666Y-58658095D02*
X172646666Y-58181904D01*
X172932380Y-58753333D02*
X171932380Y-58420000D01*
X172932380Y-58086666D01*
X166907380Y-61063095D02*
X165907380Y-61063095D01*
X165907380Y-60825000D01*
X165955000Y-60682142D01*
X166050238Y-60586904D01*
X166145476Y-60539285D01*
X166335952Y-60491666D01*
X166478809Y-60491666D01*
X166669285Y-60539285D01*
X166764523Y-60586904D01*
X166859761Y-60682142D01*
X166907380Y-60825000D01*
X166907380Y-61063095D01*
X166002619Y-60110714D02*
X165955000Y-60063095D01*
X165907380Y-59967857D01*
X165907380Y-59729761D01*
X165955000Y-59634523D01*
X166002619Y-59586904D01*
X166097857Y-59539285D01*
X166193095Y-59539285D01*
X166335952Y-59586904D01*
X166907380Y-60158333D01*
X166907380Y-59539285D01*
X175092380Y-70810476D02*
X174616190Y-71143809D01*
X175092380Y-71381904D02*
X174092380Y-71381904D01*
X174092380Y-71000952D01*
X174140000Y-70905714D01*
X174187619Y-70858095D01*
X174282857Y-70810476D01*
X174425714Y-70810476D01*
X174520952Y-70858095D01*
X174568571Y-70905714D01*
X174616190Y-71000952D01*
X174616190Y-71381904D01*
X171252380Y-71286666D02*
X170776190Y-71620000D01*
X171252380Y-71858095D02*
X170252380Y-71858095D01*
X170252380Y-71477142D01*
X170300000Y-71381904D01*
X170347619Y-71334285D01*
X170442857Y-71286666D01*
X170585714Y-71286666D01*
X170680952Y-71334285D01*
X170728571Y-71381904D01*
X170776190Y-71477142D01*
X170776190Y-71858095D01*
X171252380Y-70334285D02*
X171252380Y-70905714D01*
X171252380Y-70620000D02*
X170252380Y-70620000D01*
X170395238Y-70715238D01*
X170490476Y-70810476D01*
X170538095Y-70905714D01*
X179267619Y-63468095D02*
X179220000Y-63420476D01*
X179172380Y-63325238D01*
X179172380Y-63087142D01*
X179220000Y-62991904D01*
X179267619Y-62944285D01*
X179362857Y-62896666D01*
X179458095Y-62896666D01*
X179600952Y-62944285D01*
X180172380Y-63515714D01*
X180172380Y-62896666D01*
X179267619Y-62515714D02*
X179220000Y-62468095D01*
X179172380Y-62372857D01*
X179172380Y-62134761D01*
X179220000Y-62039523D01*
X179267619Y-61991904D01*
X179362857Y-61944285D01*
X179458095Y-61944285D01*
X179600952Y-61991904D01*
X180172380Y-62563333D01*
X180172380Y-61944285D01*
X179172380Y-61325238D02*
X179172380Y-61230000D01*
X179220000Y-61134761D01*
X179267619Y-61087142D01*
X179362857Y-61039523D01*
X179553333Y-60991904D01*
X179791428Y-60991904D01*
X179981904Y-61039523D01*
X180077142Y-61087142D01*
X180124761Y-61134761D01*
X180172380Y-61230000D01*
X180172380Y-61325238D01*
X180124761Y-61420476D01*
X180077142Y-61468095D01*
X179981904Y-61515714D01*
X179791428Y-61563333D01*
X179553333Y-61563333D01*
X179362857Y-61515714D01*
X179267619Y-61468095D01*
X179220000Y-61420476D01*
X179172380Y-61325238D01*
X176332380Y-62396666D02*
X175856190Y-62730000D01*
X176332380Y-62968095D02*
X175332380Y-62968095D01*
X175332380Y-62587142D01*
X175380000Y-62491904D01*
X175427619Y-62444285D01*
X175522857Y-62396666D01*
X175665714Y-62396666D01*
X175760952Y-62444285D01*
X175808571Y-62491904D01*
X175856190Y-62587142D01*
X175856190Y-62968095D01*
X175427619Y-62015714D02*
X175380000Y-61968095D01*
X175332380Y-61872857D01*
X175332380Y-61634761D01*
X175380000Y-61539523D01*
X175427619Y-61491904D01*
X175522857Y-61444285D01*
X175618095Y-61444285D01*
X175760952Y-61491904D01*
X176332380Y-62063333D01*
X176332380Y-61444285D01*
X170244761Y-74167619D02*
X170292380Y-74024761D01*
X170292380Y-73786666D01*
X170244761Y-73691428D01*
X170197142Y-73643809D01*
X170101904Y-73596190D01*
X170006666Y-73596190D01*
X169911428Y-73643809D01*
X169863809Y-73691428D01*
X169816190Y-73786666D01*
X169768571Y-73977142D01*
X169720952Y-74072380D01*
X169673333Y-74120000D01*
X169578095Y-74167619D01*
X169482857Y-74167619D01*
X169387619Y-74120000D01*
X169340000Y-74072380D01*
X169292380Y-73977142D01*
X169292380Y-73739047D01*
X169340000Y-73596190D01*
X169292380Y-73262857D02*
X170292380Y-73024761D01*
X169578095Y-72834285D01*
X170292380Y-72643809D01*
X169292380Y-72405714D01*
X170387619Y-72262857D02*
X170387619Y-71500952D01*
X170292380Y-71262857D02*
X169292380Y-71262857D01*
X169292380Y-70881904D01*
X169340000Y-70786666D01*
X169387619Y-70739047D01*
X169482857Y-70691428D01*
X169625714Y-70691428D01*
X169720952Y-70739047D01*
X169768571Y-70786666D01*
X169816190Y-70881904D01*
X169816190Y-71262857D01*
X169625714Y-69834285D02*
X170292380Y-69834285D01*
X169625714Y-70262857D02*
X170149523Y-70262857D01*
X170244761Y-70215238D01*
X170292380Y-70120000D01*
X170292380Y-69977142D01*
X170244761Y-69881904D01*
X170197142Y-69834285D01*
X170244761Y-69405714D02*
X170292380Y-69310476D01*
X170292380Y-69120000D01*
X170244761Y-69024761D01*
X170149523Y-68977142D01*
X170101904Y-68977142D01*
X170006666Y-69024761D01*
X169959047Y-69120000D01*
X169959047Y-69262857D01*
X169911428Y-69358095D01*
X169816190Y-69405714D01*
X169768571Y-69405714D01*
X169673333Y-69358095D01*
X169625714Y-69262857D01*
X169625714Y-69120000D01*
X169673333Y-69024761D01*
X170292380Y-68548571D02*
X169292380Y-68548571D01*
X170292380Y-68120000D02*
X169768571Y-68120000D01*
X169673333Y-68167619D01*
X169625714Y-68262857D01*
X169625714Y-68405714D01*
X169673333Y-68500952D01*
X169720952Y-68548571D01*
X161694761Y-72453333D02*
X161742380Y-72310476D01*
X161742380Y-72072380D01*
X161694761Y-71977142D01*
X161647142Y-71929523D01*
X161551904Y-71881904D01*
X161456666Y-71881904D01*
X161361428Y-71929523D01*
X161313809Y-71977142D01*
X161266190Y-72072380D01*
X161218571Y-72262857D01*
X161170952Y-72358095D01*
X161123333Y-72405714D01*
X161028095Y-72453333D01*
X160932857Y-72453333D01*
X160837619Y-72405714D01*
X160790000Y-72358095D01*
X160742380Y-72262857D01*
X160742380Y-72024761D01*
X160790000Y-71881904D01*
X160742380Y-71548571D02*
X161742380Y-71310476D01*
X161028095Y-71120000D01*
X161742380Y-70929523D01*
X160742380Y-70691428D01*
X161742380Y-69786666D02*
X161742380Y-70358095D01*
X161742380Y-70072380D02*
X160742380Y-70072380D01*
X160885238Y-70167619D01*
X160980476Y-70262857D01*
X161028095Y-70358095D01*
X194722380Y-68380952D02*
X194722380Y-68857142D01*
X193722380Y-68857142D01*
X194722380Y-68047619D02*
X193722380Y-68047619D01*
X194436666Y-67714285D01*
X193722380Y-67380952D01*
X194722380Y-67380952D01*
X193722380Y-67000000D02*
X193722380Y-66333333D01*
X194722380Y-66761904D01*
X194150952Y-65809523D02*
X194103333Y-65904761D01*
X194055714Y-65952380D01*
X193960476Y-66000000D01*
X193912857Y-66000000D01*
X193817619Y-65952380D01*
X193770000Y-65904761D01*
X193722380Y-65809523D01*
X193722380Y-65619047D01*
X193770000Y-65523809D01*
X193817619Y-65476190D01*
X193912857Y-65428571D01*
X193960476Y-65428571D01*
X194055714Y-65476190D01*
X194103333Y-65523809D01*
X194150952Y-65619047D01*
X194150952Y-65809523D01*
X194198571Y-65904761D01*
X194246190Y-65952380D01*
X194341428Y-66000000D01*
X194531904Y-66000000D01*
X194627142Y-65952380D01*
X194674761Y-65904761D01*
X194722380Y-65809523D01*
X194722380Y-65619047D01*
X194674761Y-65523809D01*
X194627142Y-65476190D01*
X194531904Y-65428571D01*
X194341428Y-65428571D01*
X194246190Y-65476190D01*
X194198571Y-65523809D01*
X194150952Y-65619047D01*
X193722380Y-64809523D02*
X193722380Y-64714285D01*
X193770000Y-64619047D01*
X193817619Y-64571428D01*
X193912857Y-64523809D01*
X194103333Y-64476190D01*
X194341428Y-64476190D01*
X194531904Y-64523809D01*
X194627142Y-64571428D01*
X194674761Y-64619047D01*
X194722380Y-64714285D01*
X194722380Y-64809523D01*
X194674761Y-64904761D01*
X194627142Y-64952380D01*
X194531904Y-65000000D01*
X194341428Y-65047619D01*
X194103333Y-65047619D01*
X193912857Y-65000000D01*
X193817619Y-64952380D01*
X193770000Y-64904761D01*
X193722380Y-64809523D01*
X193722380Y-63571428D02*
X193722380Y-64047619D01*
X194198571Y-64095238D01*
X194150952Y-64047619D01*
X194103333Y-63952380D01*
X194103333Y-63714285D01*
X194150952Y-63619047D01*
X194198571Y-63571428D01*
X194293809Y-63523809D01*
X194531904Y-63523809D01*
X194627142Y-63571428D01*
X194674761Y-63619047D01*
X194722380Y-63714285D01*
X194722380Y-63952380D01*
X194674761Y-64047619D01*
X194627142Y-64095238D01*
X194817619Y-63333333D02*
X194817619Y-62571428D01*
X193722380Y-62476190D02*
X193722380Y-61904761D01*
X194722380Y-62190476D02*
X193722380Y-62190476D01*
X193722380Y-61380952D02*
X193722380Y-61190476D01*
X193770000Y-61095238D01*
X193865238Y-61000000D01*
X194055714Y-60952380D01*
X194389047Y-60952380D01*
X194579523Y-61000000D01*
X194674761Y-61095238D01*
X194722380Y-61190476D01*
X194722380Y-61380952D01*
X194674761Y-61476190D01*
X194579523Y-61571428D01*
X194389047Y-61619047D01*
X194055714Y-61619047D01*
X193865238Y-61571428D01*
X193770000Y-61476190D01*
X193722380Y-61380952D01*
X193817619Y-60571428D02*
X193770000Y-60523809D01*
X193722380Y-60428571D01*
X193722380Y-60190476D01*
X193770000Y-60095238D01*
X193817619Y-60047619D01*
X193912857Y-60000000D01*
X194008095Y-60000000D01*
X194150952Y-60047619D01*
X194722380Y-60619047D01*
X194722380Y-60000000D01*
X193817619Y-59619047D02*
X193770000Y-59571428D01*
X193722380Y-59476190D01*
X193722380Y-59238095D01*
X193770000Y-59142857D01*
X193817619Y-59095238D01*
X193912857Y-59047619D01*
X194008095Y-59047619D01*
X194150952Y-59095238D01*
X194722380Y-59666666D01*
X194722380Y-59047619D01*
X193722380Y-58428571D02*
X193722380Y-58333333D01*
X193770000Y-58238095D01*
X193817619Y-58190476D01*
X193912857Y-58142857D01*
X194103333Y-58095238D01*
X194341428Y-58095238D01*
X194531904Y-58142857D01*
X194627142Y-58190476D01*
X194674761Y-58238095D01*
X194722380Y-58333333D01*
X194722380Y-58428571D01*
X194674761Y-58523809D01*
X194627142Y-58571428D01*
X194531904Y-58619047D01*
X194341428Y-58666666D01*
X194103333Y-58666666D01*
X193912857Y-58619047D01*
X193817619Y-58571428D01*
X193770000Y-58523809D01*
X193722380Y-58428571D01*
X186952380Y-64261904D02*
X187761904Y-64261904D01*
X187857142Y-64214285D01*
X187904761Y-64166666D01*
X187952380Y-64071428D01*
X187952380Y-63880952D01*
X187904761Y-63785714D01*
X187857142Y-63738095D01*
X187761904Y-63690476D01*
X186952380Y-63690476D01*
X187952380Y-62690476D02*
X187952380Y-63261904D01*
X187952380Y-62976190D02*
X186952380Y-62976190D01*
X187095238Y-63071428D01*
X187190476Y-63166666D01*
X187238095Y-63261904D01*
X182666666Y-110190476D02*
X182666666Y-109714285D01*
X182952380Y-110285714D02*
X181952380Y-109952380D01*
X182952380Y-109619047D01*
X181952380Y-109428571D02*
X181952380Y-108857142D01*
X182952380Y-109142857D02*
X181952380Y-109142857D01*
X182952380Y-108523809D02*
X182285714Y-108523809D01*
X182380952Y-108523809D02*
X182333333Y-108476190D01*
X182285714Y-108380952D01*
X182285714Y-108238095D01*
X182333333Y-108142857D01*
X182428571Y-108095238D01*
X182952380Y-108095238D01*
X182428571Y-108095238D02*
X182333333Y-108047619D01*
X182285714Y-107952380D01*
X182285714Y-107809523D01*
X182333333Y-107714285D01*
X182428571Y-107666666D01*
X182952380Y-107666666D01*
X182904761Y-106809523D02*
X182952380Y-106904761D01*
X182952380Y-107095238D01*
X182904761Y-107190476D01*
X182809523Y-107238095D01*
X182428571Y-107238095D01*
X182333333Y-107190476D01*
X182285714Y-107095238D01*
X182285714Y-106904761D01*
X182333333Y-106809523D01*
X182428571Y-106761904D01*
X182523809Y-106761904D01*
X182619047Y-107238095D01*
X182285714Y-105904761D02*
X183095238Y-105904761D01*
X183190476Y-105952380D01*
X183238095Y-106000000D01*
X183285714Y-106095238D01*
X183285714Y-106238095D01*
X183238095Y-106333333D01*
X182904761Y-105904761D02*
X182952380Y-106000000D01*
X182952380Y-106190476D01*
X182904761Y-106285714D01*
X182857142Y-106333333D01*
X182761904Y-106380952D01*
X182476190Y-106380952D01*
X182380952Y-106333333D01*
X182333333Y-106285714D01*
X182285714Y-106190476D01*
X182285714Y-106000000D01*
X182333333Y-105904761D01*
X182952380Y-105000000D02*
X182428571Y-105000000D01*
X182333333Y-105047619D01*
X182285714Y-105142857D01*
X182285714Y-105333333D01*
X182333333Y-105428571D01*
X182904761Y-105000000D02*
X182952380Y-105095238D01*
X182952380Y-105333333D01*
X182904761Y-105428571D01*
X182809523Y-105476190D01*
X182714285Y-105476190D01*
X182619047Y-105428571D01*
X182571428Y-105333333D01*
X182571428Y-105095238D01*
X182523809Y-105000000D01*
X181952380Y-104619047D02*
X181952380Y-104000000D01*
X182333333Y-104333333D01*
X182333333Y-104190476D01*
X182380952Y-104095238D01*
X182428571Y-104047619D01*
X182523809Y-104000000D01*
X182761904Y-104000000D01*
X182857142Y-104047619D01*
X182904761Y-104095238D01*
X182952380Y-104190476D01*
X182952380Y-104476190D01*
X182904761Y-104571428D01*
X182857142Y-104619047D01*
X182047619Y-103619047D02*
X182000000Y-103571428D01*
X181952380Y-103476190D01*
X181952380Y-103238095D01*
X182000000Y-103142857D01*
X182047619Y-103095238D01*
X182142857Y-103047619D01*
X182238095Y-103047619D01*
X182380952Y-103095238D01*
X182952380Y-103666666D01*
X182952380Y-103047619D01*
X182380952Y-102476190D02*
X182333333Y-102571428D01*
X182285714Y-102619047D01*
X182190476Y-102666666D01*
X182142857Y-102666666D01*
X182047619Y-102619047D01*
X182000000Y-102571428D01*
X181952380Y-102476190D01*
X181952380Y-102285714D01*
X182000000Y-102190476D01*
X182047619Y-102142857D01*
X182142857Y-102095238D01*
X182190476Y-102095238D01*
X182285714Y-102142857D01*
X182333333Y-102190476D01*
X182380952Y-102285714D01*
X182380952Y-102476190D01*
X182428571Y-102571428D01*
X182476190Y-102619047D01*
X182571428Y-102666666D01*
X182761904Y-102666666D01*
X182857142Y-102619047D01*
X182904761Y-102571428D01*
X182952380Y-102476190D01*
X182952380Y-102285714D01*
X182904761Y-102190476D01*
X182857142Y-102142857D01*
X182761904Y-102095238D01*
X182571428Y-102095238D01*
X182476190Y-102142857D01*
X182428571Y-102190476D01*
X182380952Y-102285714D01*
X182952380Y-101666666D02*
X181952380Y-101666666D01*
X181952380Y-101285714D01*
X182000000Y-101190476D01*
X182047619Y-101142857D01*
X182142857Y-101095238D01*
X182285714Y-101095238D01*
X182380952Y-101142857D01*
X182428571Y-101190476D01*
X182476190Y-101285714D01*
X182476190Y-101666666D01*
X182571428Y-100666666D02*
X182571428Y-99904761D01*
X182952380Y-99428571D02*
X181952380Y-99428571D01*
X181952380Y-99047619D01*
X182000000Y-98952380D01*
X182047619Y-98904761D01*
X182142857Y-98857142D01*
X182285714Y-98857142D01*
X182380952Y-98904761D01*
X182428571Y-98952380D01*
X182476190Y-99047619D01*
X182476190Y-99428571D01*
X181952380Y-98428571D02*
X182761904Y-98428571D01*
X182857142Y-98380952D01*
X182904761Y-98333333D01*
X182952380Y-98238095D01*
X182952380Y-98047619D01*
X182904761Y-97952380D01*
X182857142Y-97904761D01*
X182761904Y-97857142D01*
X181952380Y-97857142D01*
X164457142Y-93585714D02*
X164504761Y-93633333D01*
X164552380Y-93776190D01*
X164552380Y-93871428D01*
X164504761Y-94014285D01*
X164409523Y-94109523D01*
X164314285Y-94157142D01*
X164123809Y-94204761D01*
X163980952Y-94204761D01*
X163790476Y-94157142D01*
X163695238Y-94109523D01*
X163600000Y-94014285D01*
X163552380Y-93871428D01*
X163552380Y-93776190D01*
X163600000Y-93633333D01*
X163647619Y-93585714D01*
X164552380Y-93157142D02*
X163885714Y-93157142D01*
X164076190Y-93157142D02*
X163980952Y-93109523D01*
X163933333Y-93061904D01*
X163885714Y-92966666D01*
X163885714Y-92871428D01*
X163885714Y-92633333D02*
X164552380Y-92395238D01*
X163885714Y-92157142D02*
X164552380Y-92395238D01*
X164790476Y-92490476D01*
X164838095Y-92538095D01*
X164885714Y-92633333D01*
X164504761Y-91823809D02*
X164552380Y-91728571D01*
X164552380Y-91538095D01*
X164504761Y-91442857D01*
X164409523Y-91395238D01*
X164361904Y-91395238D01*
X164266666Y-91442857D01*
X164219047Y-91538095D01*
X164219047Y-91680952D01*
X164171428Y-91776190D01*
X164076190Y-91823809D01*
X164028571Y-91823809D01*
X163933333Y-91776190D01*
X163885714Y-91680952D01*
X163885714Y-91538095D01*
X163933333Y-91442857D01*
X163885714Y-91109523D02*
X163885714Y-90728571D01*
X163552380Y-90966666D02*
X164409523Y-90966666D01*
X164504761Y-90919047D01*
X164552380Y-90823809D01*
X164552380Y-90728571D01*
X164552380Y-89966666D02*
X164028571Y-89966666D01*
X163933333Y-90014285D01*
X163885714Y-90109523D01*
X163885714Y-90300000D01*
X163933333Y-90395238D01*
X164504761Y-89966666D02*
X164552380Y-90061904D01*
X164552380Y-90300000D01*
X164504761Y-90395238D01*
X164409523Y-90442857D01*
X164314285Y-90442857D01*
X164219047Y-90395238D01*
X164171428Y-90300000D01*
X164171428Y-90061904D01*
X164123809Y-89966666D01*
X164552380Y-89347619D02*
X164504761Y-89442857D01*
X164409523Y-89490476D01*
X163552380Y-89490476D01*
X172696190Y-96996190D02*
X173172380Y-96996190D01*
X172172380Y-97329523D02*
X172696190Y-96996190D01*
X172172380Y-96662857D01*
X173172380Y-95805714D02*
X173172380Y-96377142D01*
X173172380Y-96091428D02*
X172172380Y-96091428D01*
X172315238Y-96186666D01*
X172410476Y-96281904D01*
X172458095Y-96377142D01*
X195157142Y-91685714D02*
X195204761Y-91733333D01*
X195252380Y-91876190D01*
X195252380Y-91971428D01*
X195204761Y-92114285D01*
X195109523Y-92209523D01*
X195014285Y-92257142D01*
X194823809Y-92304761D01*
X194680952Y-92304761D01*
X194490476Y-92257142D01*
X194395238Y-92209523D01*
X194300000Y-92114285D01*
X194252380Y-91971428D01*
X194252380Y-91876190D01*
X194300000Y-91733333D01*
X194347619Y-91685714D01*
X195252380Y-91114285D02*
X195204761Y-91209523D01*
X195157142Y-91257142D01*
X195061904Y-91304761D01*
X194776190Y-91304761D01*
X194680952Y-91257142D01*
X194633333Y-91209523D01*
X194585714Y-91114285D01*
X194585714Y-90971428D01*
X194633333Y-90876190D01*
X194680952Y-90828571D01*
X194776190Y-90780952D01*
X195061904Y-90780952D01*
X195157142Y-90828571D01*
X195204761Y-90876190D01*
X195252380Y-90971428D01*
X195252380Y-91114285D01*
X194585714Y-90352380D02*
X195252380Y-90352380D01*
X194680952Y-90352380D02*
X194633333Y-90304761D01*
X194585714Y-90209523D01*
X194585714Y-90066666D01*
X194633333Y-89971428D01*
X194728571Y-89923809D01*
X195252380Y-89923809D01*
X194585714Y-89447619D02*
X195252380Y-89447619D01*
X194680952Y-89447619D02*
X194633333Y-89400000D01*
X194585714Y-89304761D01*
X194585714Y-89161904D01*
X194633333Y-89066666D01*
X194728571Y-89019047D01*
X195252380Y-89019047D01*
X195347619Y-88780952D02*
X195347619Y-88019047D01*
X194252380Y-87590476D02*
X194252380Y-87495238D01*
X194300000Y-87400000D01*
X194347619Y-87352380D01*
X194442857Y-87304761D01*
X194633333Y-87257142D01*
X194871428Y-87257142D01*
X195061904Y-87304761D01*
X195157142Y-87352380D01*
X195204761Y-87400000D01*
X195252380Y-87495238D01*
X195252380Y-87590476D01*
X195204761Y-87685714D01*
X195157142Y-87733333D01*
X195061904Y-87780952D01*
X194871428Y-87828571D01*
X194633333Y-87828571D01*
X194442857Y-87780952D01*
X194347619Y-87733333D01*
X194300000Y-87685714D01*
X194252380Y-87590476D01*
X195252380Y-86304761D02*
X195252380Y-86876190D01*
X195252380Y-86590476D02*
X194252380Y-86590476D01*
X194395238Y-86685714D01*
X194490476Y-86780952D01*
X194538095Y-86876190D01*
X195252380Y-85971428D02*
X194585714Y-85447619D01*
X194585714Y-85971428D02*
X195252380Y-85447619D01*
X194252380Y-84876190D02*
X194252380Y-84780952D01*
X194300000Y-84685714D01*
X194347619Y-84638095D01*
X194442857Y-84590476D01*
X194633333Y-84542857D01*
X194871428Y-84542857D01*
X195061904Y-84590476D01*
X195157142Y-84638095D01*
X195204761Y-84685714D01*
X195252380Y-84780952D01*
X195252380Y-84876190D01*
X195204761Y-84971428D01*
X195157142Y-85019047D01*
X195061904Y-85066666D01*
X194871428Y-85114285D01*
X194633333Y-85114285D01*
X194442857Y-85066666D01*
X194347619Y-85019047D01*
X194300000Y-84971428D01*
X194252380Y-84876190D01*
X194252380Y-84209523D02*
X194252380Y-83542857D01*
X195252380Y-83971428D01*
X195347619Y-83400000D02*
X195347619Y-82638095D01*
X194728571Y-82066666D02*
X194728571Y-82400000D01*
X195252380Y-82400000D02*
X194252380Y-82400000D01*
X194252380Y-81923809D01*
X195204761Y-81161904D02*
X195252380Y-81257142D01*
X195252380Y-81447619D01*
X195204761Y-81542857D01*
X195109523Y-81590476D01*
X194728571Y-81590476D01*
X194633333Y-81542857D01*
X194585714Y-81447619D01*
X194585714Y-81257142D01*
X194633333Y-81161904D01*
X194728571Y-81114285D01*
X194823809Y-81114285D01*
X194919047Y-81590476D01*
X195252380Y-80685714D02*
X194585714Y-80685714D01*
X194680952Y-80685714D02*
X194633333Y-80638095D01*
X194585714Y-80542857D01*
X194585714Y-80400000D01*
X194633333Y-80304761D01*
X194728571Y-80257142D01*
X195252380Y-80257142D01*
X194728571Y-80257142D02*
X194633333Y-80209523D01*
X194585714Y-80114285D01*
X194585714Y-79971428D01*
X194633333Y-79876190D01*
X194728571Y-79828571D01*
X195252380Y-79828571D01*
X195252380Y-78923809D02*
X194728571Y-78923809D01*
X194633333Y-78971428D01*
X194585714Y-79066666D01*
X194585714Y-79257142D01*
X194633333Y-79352380D01*
X195204761Y-78923809D02*
X195252380Y-79019047D01*
X195252380Y-79257142D01*
X195204761Y-79352380D01*
X195109523Y-79400000D01*
X195014285Y-79400000D01*
X194919047Y-79352380D01*
X194871428Y-79257142D01*
X194871428Y-79019047D01*
X194823809Y-78923809D01*
X195252380Y-78304761D02*
X195204761Y-78400000D01*
X195109523Y-78447619D01*
X194252380Y-78447619D01*
X195204761Y-77542857D02*
X195252380Y-77638095D01*
X195252380Y-77828571D01*
X195204761Y-77923809D01*
X195109523Y-77971428D01*
X194728571Y-77971428D01*
X194633333Y-77923809D01*
X194585714Y-77828571D01*
X194585714Y-77638095D01*
X194633333Y-77542857D01*
X194728571Y-77495238D01*
X194823809Y-77495238D01*
X194919047Y-77971428D01*
X189952380Y-86693333D02*
X190666666Y-86693333D01*
X190809523Y-86740952D01*
X190904761Y-86836190D01*
X190952380Y-86979047D01*
X190952380Y-87074285D01*
X190047619Y-86264761D02*
X190000000Y-86217142D01*
X189952380Y-86121904D01*
X189952380Y-85883809D01*
X190000000Y-85788571D01*
X190047619Y-85740952D01*
X190142857Y-85693333D01*
X190238095Y-85693333D01*
X190380952Y-85740952D01*
X190952380Y-86312380D01*
X190952380Y-85693333D01*
X194957142Y-112585714D02*
X195004761Y-112633333D01*
X195052380Y-112776190D01*
X195052380Y-112871428D01*
X195004761Y-113014285D01*
X194909523Y-113109523D01*
X194814285Y-113157142D01*
X194623809Y-113204761D01*
X194480952Y-113204761D01*
X194290476Y-113157142D01*
X194195238Y-113109523D01*
X194100000Y-113014285D01*
X194052380Y-112871428D01*
X194052380Y-112776190D01*
X194100000Y-112633333D01*
X194147619Y-112585714D01*
X195052380Y-112014285D02*
X195004761Y-112109523D01*
X194957142Y-112157142D01*
X194861904Y-112204761D01*
X194576190Y-112204761D01*
X194480952Y-112157142D01*
X194433333Y-112109523D01*
X194385714Y-112014285D01*
X194385714Y-111871428D01*
X194433333Y-111776190D01*
X194480952Y-111728571D01*
X194576190Y-111680952D01*
X194861904Y-111680952D01*
X194957142Y-111728571D01*
X195004761Y-111776190D01*
X195052380Y-111871428D01*
X195052380Y-112014285D01*
X194385714Y-111252380D02*
X195052380Y-111252380D01*
X194480952Y-111252380D02*
X194433333Y-111204761D01*
X194385714Y-111109523D01*
X194385714Y-110966666D01*
X194433333Y-110871428D01*
X194528571Y-110823809D01*
X195052380Y-110823809D01*
X194385714Y-110347619D02*
X195052380Y-110347619D01*
X194480952Y-110347619D02*
X194433333Y-110300000D01*
X194385714Y-110204761D01*
X194385714Y-110061904D01*
X194433333Y-109966666D01*
X194528571Y-109919047D01*
X195052380Y-109919047D01*
X195147619Y-109680952D02*
X195147619Y-108919047D01*
X194052380Y-108490476D02*
X194052380Y-108395238D01*
X194100000Y-108300000D01*
X194147619Y-108252380D01*
X194242857Y-108204761D01*
X194433333Y-108157142D01*
X194671428Y-108157142D01*
X194861904Y-108204761D01*
X194957142Y-108252380D01*
X195004761Y-108300000D01*
X195052380Y-108395238D01*
X195052380Y-108490476D01*
X195004761Y-108585714D01*
X194957142Y-108633333D01*
X194861904Y-108680952D01*
X194671428Y-108728571D01*
X194433333Y-108728571D01*
X194242857Y-108680952D01*
X194147619Y-108633333D01*
X194100000Y-108585714D01*
X194052380Y-108490476D01*
X195052380Y-107204761D02*
X195052380Y-107776190D01*
X195052380Y-107490476D02*
X194052380Y-107490476D01*
X194195238Y-107585714D01*
X194290476Y-107680952D01*
X194338095Y-107776190D01*
X195052380Y-106871428D02*
X194385714Y-106347619D01*
X194385714Y-106871428D02*
X195052380Y-106347619D01*
X194052380Y-105776190D02*
X194052380Y-105680952D01*
X194100000Y-105585714D01*
X194147619Y-105538095D01*
X194242857Y-105490476D01*
X194433333Y-105442857D01*
X194671428Y-105442857D01*
X194861904Y-105490476D01*
X194957142Y-105538095D01*
X195004761Y-105585714D01*
X195052380Y-105680952D01*
X195052380Y-105776190D01*
X195004761Y-105871428D01*
X194957142Y-105919047D01*
X194861904Y-105966666D01*
X194671428Y-106014285D01*
X194433333Y-106014285D01*
X194242857Y-105966666D01*
X194147619Y-105919047D01*
X194100000Y-105871428D01*
X194052380Y-105776190D01*
X194052380Y-104585714D02*
X194052380Y-104776190D01*
X194100000Y-104871428D01*
X194147619Y-104919047D01*
X194290476Y-105014285D01*
X194480952Y-105061904D01*
X194861904Y-105061904D01*
X194957142Y-105014285D01*
X195004761Y-104966666D01*
X195052380Y-104871428D01*
X195052380Y-104680952D01*
X195004761Y-104585714D01*
X194957142Y-104538095D01*
X194861904Y-104490476D01*
X194623809Y-104490476D01*
X194528571Y-104538095D01*
X194480952Y-104585714D01*
X194433333Y-104680952D01*
X194433333Y-104871428D01*
X194480952Y-104966666D01*
X194528571Y-105014285D01*
X194623809Y-105061904D01*
X195147619Y-104300000D02*
X195147619Y-103538095D01*
X194528571Y-102966666D02*
X194528571Y-103300000D01*
X195052380Y-103300000D02*
X194052380Y-103300000D01*
X194052380Y-102823809D01*
X195004761Y-102061904D02*
X195052380Y-102157142D01*
X195052380Y-102347619D01*
X195004761Y-102442857D01*
X194909523Y-102490476D01*
X194528571Y-102490476D01*
X194433333Y-102442857D01*
X194385714Y-102347619D01*
X194385714Y-102157142D01*
X194433333Y-102061904D01*
X194528571Y-102014285D01*
X194623809Y-102014285D01*
X194719047Y-102490476D01*
X195052380Y-101585714D02*
X194385714Y-101585714D01*
X194480952Y-101585714D02*
X194433333Y-101538095D01*
X194385714Y-101442857D01*
X194385714Y-101300000D01*
X194433333Y-101204761D01*
X194528571Y-101157142D01*
X195052380Y-101157142D01*
X194528571Y-101157142D02*
X194433333Y-101109523D01*
X194385714Y-101014285D01*
X194385714Y-100871428D01*
X194433333Y-100776190D01*
X194528571Y-100728571D01*
X195052380Y-100728571D01*
X195052380Y-99823809D02*
X194528571Y-99823809D01*
X194433333Y-99871428D01*
X194385714Y-99966666D01*
X194385714Y-100157142D01*
X194433333Y-100252380D01*
X195004761Y-99823809D02*
X195052380Y-99919047D01*
X195052380Y-100157142D01*
X195004761Y-100252380D01*
X194909523Y-100300000D01*
X194814285Y-100300000D01*
X194719047Y-100252380D01*
X194671428Y-100157142D01*
X194671428Y-99919047D01*
X194623809Y-99823809D01*
X195052380Y-99204761D02*
X195004761Y-99300000D01*
X194909523Y-99347619D01*
X194052380Y-99347619D01*
X195004761Y-98442857D02*
X195052380Y-98538095D01*
X195052380Y-98728571D01*
X195004761Y-98823809D01*
X194909523Y-98871428D01*
X194528571Y-98871428D01*
X194433333Y-98823809D01*
X194385714Y-98728571D01*
X194385714Y-98538095D01*
X194433333Y-98442857D01*
X194528571Y-98395238D01*
X194623809Y-98395238D01*
X194719047Y-98871428D01*
X189952380Y-105743333D02*
X190666666Y-105743333D01*
X190809523Y-105790952D01*
X190904761Y-105886190D01*
X190952380Y-106029047D01*
X190952380Y-106124285D01*
X189952380Y-105362380D02*
X189952380Y-104743333D01*
X190333333Y-105076666D01*
X190333333Y-104933809D01*
X190380952Y-104838571D01*
X190428571Y-104790952D01*
X190523809Y-104743333D01*
X190761904Y-104743333D01*
X190857142Y-104790952D01*
X190904761Y-104838571D01*
X190952380Y-104933809D01*
X190952380Y-105219523D01*
X190904761Y-105314761D01*
X190857142Y-105362380D01*
X171757142Y-93085714D02*
X171804761Y-93133333D01*
X171852380Y-93276190D01*
X171852380Y-93371428D01*
X171804761Y-93514285D01*
X171709523Y-93609523D01*
X171614285Y-93657142D01*
X171423809Y-93704761D01*
X171280952Y-93704761D01*
X171090476Y-93657142D01*
X170995238Y-93609523D01*
X170900000Y-93514285D01*
X170852380Y-93371428D01*
X170852380Y-93276190D01*
X170900000Y-93133333D01*
X170947619Y-93085714D01*
X171852380Y-92514285D02*
X171804761Y-92609523D01*
X171757142Y-92657142D01*
X171661904Y-92704761D01*
X171376190Y-92704761D01*
X171280952Y-92657142D01*
X171233333Y-92609523D01*
X171185714Y-92514285D01*
X171185714Y-92371428D01*
X171233333Y-92276190D01*
X171280952Y-92228571D01*
X171376190Y-92180952D01*
X171661904Y-92180952D01*
X171757142Y-92228571D01*
X171804761Y-92276190D01*
X171852380Y-92371428D01*
X171852380Y-92514285D01*
X171185714Y-91752380D02*
X171852380Y-91752380D01*
X171280952Y-91752380D02*
X171233333Y-91704761D01*
X171185714Y-91609523D01*
X171185714Y-91466666D01*
X171233333Y-91371428D01*
X171328571Y-91323809D01*
X171852380Y-91323809D01*
X171185714Y-90847619D02*
X171852380Y-90847619D01*
X171280952Y-90847619D02*
X171233333Y-90800000D01*
X171185714Y-90704761D01*
X171185714Y-90561904D01*
X171233333Y-90466666D01*
X171328571Y-90419047D01*
X171852380Y-90419047D01*
X171947619Y-90180952D02*
X171947619Y-89419047D01*
X170852380Y-88990476D02*
X170852380Y-88895238D01*
X170900000Y-88800000D01*
X170947619Y-88752380D01*
X171042857Y-88704761D01*
X171233333Y-88657142D01*
X171471428Y-88657142D01*
X171661904Y-88704761D01*
X171757142Y-88752380D01*
X171804761Y-88800000D01*
X171852380Y-88895238D01*
X171852380Y-88990476D01*
X171804761Y-89085714D01*
X171757142Y-89133333D01*
X171661904Y-89180952D01*
X171471428Y-89228571D01*
X171233333Y-89228571D01*
X171042857Y-89180952D01*
X170947619Y-89133333D01*
X170900000Y-89085714D01*
X170852380Y-88990476D01*
X171852380Y-87704761D02*
X171852380Y-88276190D01*
X171852380Y-87990476D02*
X170852380Y-87990476D01*
X170995238Y-88085714D01*
X171090476Y-88180952D01*
X171138095Y-88276190D01*
X171852380Y-87371428D02*
X171185714Y-86847619D01*
X171185714Y-87371428D02*
X171852380Y-86847619D01*
X170852380Y-86276190D02*
X170852380Y-86180952D01*
X170900000Y-86085714D01*
X170947619Y-86038095D01*
X171042857Y-85990476D01*
X171233333Y-85942857D01*
X171471428Y-85942857D01*
X171661904Y-85990476D01*
X171757142Y-86038095D01*
X171804761Y-86085714D01*
X171852380Y-86180952D01*
X171852380Y-86276190D01*
X171804761Y-86371428D01*
X171757142Y-86419047D01*
X171661904Y-86466666D01*
X171471428Y-86514285D01*
X171233333Y-86514285D01*
X171042857Y-86466666D01*
X170947619Y-86419047D01*
X170900000Y-86371428D01*
X170852380Y-86276190D01*
X171280952Y-85371428D02*
X171233333Y-85466666D01*
X171185714Y-85514285D01*
X171090476Y-85561904D01*
X171042857Y-85561904D01*
X170947619Y-85514285D01*
X170900000Y-85466666D01*
X170852380Y-85371428D01*
X170852380Y-85180952D01*
X170900000Y-85085714D01*
X170947619Y-85038095D01*
X171042857Y-84990476D01*
X171090476Y-84990476D01*
X171185714Y-85038095D01*
X171233333Y-85085714D01*
X171280952Y-85180952D01*
X171280952Y-85371428D01*
X171328571Y-85466666D01*
X171376190Y-85514285D01*
X171471428Y-85561904D01*
X171661904Y-85561904D01*
X171757142Y-85514285D01*
X171804761Y-85466666D01*
X171852380Y-85371428D01*
X171852380Y-85180952D01*
X171804761Y-85085714D01*
X171757142Y-85038095D01*
X171661904Y-84990476D01*
X171471428Y-84990476D01*
X171376190Y-85038095D01*
X171328571Y-85085714D01*
X171280952Y-85180952D01*
X171947619Y-84800000D02*
X171947619Y-84038095D01*
X171328571Y-83466666D02*
X171328571Y-83800000D01*
X171852380Y-83800000D02*
X170852380Y-83800000D01*
X170852380Y-83323809D01*
X171804761Y-82561904D02*
X171852380Y-82657142D01*
X171852380Y-82847619D01*
X171804761Y-82942857D01*
X171709523Y-82990476D01*
X171328571Y-82990476D01*
X171233333Y-82942857D01*
X171185714Y-82847619D01*
X171185714Y-82657142D01*
X171233333Y-82561904D01*
X171328571Y-82514285D01*
X171423809Y-82514285D01*
X171519047Y-82990476D01*
X171852380Y-82085714D02*
X171185714Y-82085714D01*
X171280952Y-82085714D02*
X171233333Y-82038095D01*
X171185714Y-81942857D01*
X171185714Y-81800000D01*
X171233333Y-81704761D01*
X171328571Y-81657142D01*
X171852380Y-81657142D01*
X171328571Y-81657142D02*
X171233333Y-81609523D01*
X171185714Y-81514285D01*
X171185714Y-81371428D01*
X171233333Y-81276190D01*
X171328571Y-81228571D01*
X171852380Y-81228571D01*
X171852380Y-80323809D02*
X171328571Y-80323809D01*
X171233333Y-80371428D01*
X171185714Y-80466666D01*
X171185714Y-80657142D01*
X171233333Y-80752380D01*
X171804761Y-80323809D02*
X171852380Y-80419047D01*
X171852380Y-80657142D01*
X171804761Y-80752380D01*
X171709523Y-80800000D01*
X171614285Y-80800000D01*
X171519047Y-80752380D01*
X171471428Y-80657142D01*
X171471428Y-80419047D01*
X171423809Y-80323809D01*
X171852380Y-79704761D02*
X171804761Y-79800000D01*
X171709523Y-79847619D01*
X170852380Y-79847619D01*
X171804761Y-78942857D02*
X171852380Y-79038095D01*
X171852380Y-79228571D01*
X171804761Y-79323809D01*
X171709523Y-79371428D01*
X171328571Y-79371428D01*
X171233333Y-79323809D01*
X171185714Y-79228571D01*
X171185714Y-79038095D01*
X171233333Y-78942857D01*
X171328571Y-78895238D01*
X171423809Y-78895238D01*
X171519047Y-79371428D01*
X174712380Y-87963333D02*
X175426666Y-87963333D01*
X175569523Y-88010952D01*
X175664761Y-88106190D01*
X175712380Y-88249047D01*
X175712380Y-88344285D01*
X175045714Y-87058571D02*
X175712380Y-87058571D01*
X174664761Y-87296666D02*
X175379047Y-87534761D01*
X175379047Y-86915714D01*
X170914285Y-115357142D02*
X170866666Y-115404761D01*
X170723809Y-115452380D01*
X170628571Y-115452380D01*
X170485714Y-115404761D01*
X170390476Y-115309523D01*
X170342857Y-115214285D01*
X170295238Y-115023809D01*
X170295238Y-114880952D01*
X170342857Y-114690476D01*
X170390476Y-114595238D01*
X170485714Y-114500000D01*
X170628571Y-114452380D01*
X170723809Y-114452380D01*
X170866666Y-114500000D01*
X170914285Y-114547619D01*
X171485714Y-115452380D02*
X171390476Y-115404761D01*
X171342857Y-115357142D01*
X171295238Y-115261904D01*
X171295238Y-114976190D01*
X171342857Y-114880952D01*
X171390476Y-114833333D01*
X171485714Y-114785714D01*
X171628571Y-114785714D01*
X171723809Y-114833333D01*
X171771428Y-114880952D01*
X171819047Y-114976190D01*
X171819047Y-115261904D01*
X171771428Y-115357142D01*
X171723809Y-115404761D01*
X171628571Y-115452380D01*
X171485714Y-115452380D01*
X172247619Y-114785714D02*
X172247619Y-115452380D01*
X172247619Y-114880952D02*
X172295238Y-114833333D01*
X172390476Y-114785714D01*
X172533333Y-114785714D01*
X172628571Y-114833333D01*
X172676190Y-114928571D01*
X172676190Y-115452380D01*
X173152380Y-114785714D02*
X173152380Y-115452380D01*
X173152380Y-114880952D02*
X173200000Y-114833333D01*
X173295238Y-114785714D01*
X173438095Y-114785714D01*
X173533333Y-114833333D01*
X173580952Y-114928571D01*
X173580952Y-115452380D01*
X173819047Y-115547619D02*
X174580952Y-115547619D01*
X175009523Y-114452380D02*
X175104761Y-114452380D01*
X175200000Y-114500000D01*
X175247619Y-114547619D01*
X175295238Y-114642857D01*
X175342857Y-114833333D01*
X175342857Y-115071428D01*
X175295238Y-115261904D01*
X175247619Y-115357142D01*
X175200000Y-115404761D01*
X175104761Y-115452380D01*
X175009523Y-115452380D01*
X174914285Y-115404761D01*
X174866666Y-115357142D01*
X174819047Y-115261904D01*
X174771428Y-115071428D01*
X174771428Y-114833333D01*
X174819047Y-114642857D01*
X174866666Y-114547619D01*
X174914285Y-114500000D01*
X175009523Y-114452380D01*
X176295238Y-115452380D02*
X175723809Y-115452380D01*
X176009523Y-115452380D02*
X176009523Y-114452380D01*
X175914285Y-114595238D01*
X175819047Y-114690476D01*
X175723809Y-114738095D01*
X176628571Y-115452380D02*
X177152380Y-114785714D01*
X176628571Y-114785714D02*
X177152380Y-115452380D01*
X177723809Y-114452380D02*
X177819047Y-114452380D01*
X177914285Y-114500000D01*
X177961904Y-114547619D01*
X178009523Y-114642857D01*
X178057142Y-114833333D01*
X178057142Y-115071428D01*
X178009523Y-115261904D01*
X177961904Y-115357142D01*
X177914285Y-115404761D01*
X177819047Y-115452380D01*
X177723809Y-115452380D01*
X177628571Y-115404761D01*
X177580952Y-115357142D01*
X177533333Y-115261904D01*
X177485714Y-115071428D01*
X177485714Y-114833333D01*
X177533333Y-114642857D01*
X177580952Y-114547619D01*
X177628571Y-114500000D01*
X177723809Y-114452380D01*
X178914285Y-114785714D02*
X178914285Y-115452380D01*
X178676190Y-114404761D02*
X178438095Y-115119047D01*
X179057142Y-115119047D01*
X179200000Y-115547619D02*
X179961904Y-115547619D01*
X180533333Y-114928571D02*
X180200000Y-114928571D01*
X180200000Y-115452380D02*
X180200000Y-114452380D01*
X180676190Y-114452380D01*
X181438095Y-115404761D02*
X181342857Y-115452380D01*
X181152380Y-115452380D01*
X181057142Y-115404761D01*
X181009523Y-115309523D01*
X181009523Y-114928571D01*
X181057142Y-114833333D01*
X181152380Y-114785714D01*
X181342857Y-114785714D01*
X181438095Y-114833333D01*
X181485714Y-114928571D01*
X181485714Y-115023809D01*
X181009523Y-115119047D01*
X181914285Y-115452380D02*
X181914285Y-114785714D01*
X181914285Y-114880952D02*
X181961904Y-114833333D01*
X182057142Y-114785714D01*
X182200000Y-114785714D01*
X182295238Y-114833333D01*
X182342857Y-114928571D01*
X182342857Y-115452380D01*
X182342857Y-114928571D02*
X182390476Y-114833333D01*
X182485714Y-114785714D01*
X182628571Y-114785714D01*
X182723809Y-114833333D01*
X182771428Y-114928571D01*
X182771428Y-115452380D01*
X183676190Y-115452380D02*
X183676190Y-114928571D01*
X183628571Y-114833333D01*
X183533333Y-114785714D01*
X183342857Y-114785714D01*
X183247619Y-114833333D01*
X183676190Y-115404761D02*
X183580952Y-115452380D01*
X183342857Y-115452380D01*
X183247619Y-115404761D01*
X183200000Y-115309523D01*
X183200000Y-115214285D01*
X183247619Y-115119047D01*
X183342857Y-115071428D01*
X183580952Y-115071428D01*
X183676190Y-115023809D01*
X184295238Y-115452380D02*
X184200000Y-115404761D01*
X184152380Y-115309523D01*
X184152380Y-114452380D01*
X185057142Y-115404761D02*
X184961904Y-115452380D01*
X184771428Y-115452380D01*
X184676190Y-115404761D01*
X184628571Y-115309523D01*
X184628571Y-114928571D01*
X184676190Y-114833333D01*
X184771428Y-114785714D01*
X184961904Y-114785714D01*
X185057142Y-114833333D01*
X185104761Y-114928571D01*
X185104761Y-115023809D01*
X184628571Y-115119047D01*
X174712380Y-107023333D02*
X175426666Y-107023333D01*
X175569523Y-107070952D01*
X175664761Y-107166190D01*
X175712380Y-107309047D01*
X175712380Y-107404285D01*
X174712380Y-106070952D02*
X174712380Y-106547142D01*
X175188571Y-106594761D01*
X175140952Y-106547142D01*
X175093333Y-106451904D01*
X175093333Y-106213809D01*
X175140952Y-106118571D01*
X175188571Y-106070952D01*
X175283809Y-106023333D01*
X175521904Y-106023333D01*
X175617142Y-106070952D01*
X175664761Y-106118571D01*
X175712380Y-106213809D01*
X175712380Y-106451904D01*
X175664761Y-106547142D01*
X175617142Y-106594761D01*
X159157142Y-73785714D02*
X159204761Y-73833333D01*
X159252380Y-73976190D01*
X159252380Y-74071428D01*
X159204761Y-74214285D01*
X159109523Y-74309523D01*
X159014285Y-74357142D01*
X158823809Y-74404761D01*
X158680952Y-74404761D01*
X158490476Y-74357142D01*
X158395238Y-74309523D01*
X158300000Y-74214285D01*
X158252380Y-74071428D01*
X158252380Y-73976190D01*
X158300000Y-73833333D01*
X158347619Y-73785714D01*
X159252380Y-73214285D02*
X159204761Y-73309523D01*
X159157142Y-73357142D01*
X159061904Y-73404761D01*
X158776190Y-73404761D01*
X158680952Y-73357142D01*
X158633333Y-73309523D01*
X158585714Y-73214285D01*
X158585714Y-73071428D01*
X158633333Y-72976190D01*
X158680952Y-72928571D01*
X158776190Y-72880952D01*
X159061904Y-72880952D01*
X159157142Y-72928571D01*
X159204761Y-72976190D01*
X159252380Y-73071428D01*
X159252380Y-73214285D01*
X158585714Y-72452380D02*
X159252380Y-72452380D01*
X158680952Y-72452380D02*
X158633333Y-72404761D01*
X158585714Y-72309523D01*
X158585714Y-72166666D01*
X158633333Y-72071428D01*
X158728571Y-72023809D01*
X159252380Y-72023809D01*
X158585714Y-71547619D02*
X159252380Y-71547619D01*
X158680952Y-71547619D02*
X158633333Y-71500000D01*
X158585714Y-71404761D01*
X158585714Y-71261904D01*
X158633333Y-71166666D01*
X158728571Y-71119047D01*
X159252380Y-71119047D01*
X159347619Y-70880952D02*
X159347619Y-70119047D01*
X158252380Y-69690476D02*
X158252380Y-69595238D01*
X158300000Y-69500000D01*
X158347619Y-69452380D01*
X158442857Y-69404761D01*
X158633333Y-69357142D01*
X158871428Y-69357142D01*
X159061904Y-69404761D01*
X159157142Y-69452380D01*
X159204761Y-69500000D01*
X159252380Y-69595238D01*
X159252380Y-69690476D01*
X159204761Y-69785714D01*
X159157142Y-69833333D01*
X159061904Y-69880952D01*
X158871428Y-69928571D01*
X158633333Y-69928571D01*
X158442857Y-69880952D01*
X158347619Y-69833333D01*
X158300000Y-69785714D01*
X158252380Y-69690476D01*
X159252380Y-68404761D02*
X159252380Y-68976190D01*
X159252380Y-68690476D02*
X158252380Y-68690476D01*
X158395238Y-68785714D01*
X158490476Y-68880952D01*
X158538095Y-68976190D01*
X159252380Y-68071428D02*
X158585714Y-67547619D01*
X158585714Y-68071428D02*
X159252380Y-67547619D01*
X158252380Y-66976190D02*
X158252380Y-66880952D01*
X158300000Y-66785714D01*
X158347619Y-66738095D01*
X158442857Y-66690476D01*
X158633333Y-66642857D01*
X158871428Y-66642857D01*
X159061904Y-66690476D01*
X159157142Y-66738095D01*
X159204761Y-66785714D01*
X159252380Y-66880952D01*
X159252380Y-66976190D01*
X159204761Y-67071428D01*
X159157142Y-67119047D01*
X159061904Y-67166666D01*
X158871428Y-67214285D01*
X158633333Y-67214285D01*
X158442857Y-67166666D01*
X158347619Y-67119047D01*
X158300000Y-67071428D01*
X158252380Y-66976190D01*
X158252380Y-65785714D02*
X158252380Y-65976190D01*
X158300000Y-66071428D01*
X158347619Y-66119047D01*
X158490476Y-66214285D01*
X158680952Y-66261904D01*
X159061904Y-66261904D01*
X159157142Y-66214285D01*
X159204761Y-66166666D01*
X159252380Y-66071428D01*
X159252380Y-65880952D01*
X159204761Y-65785714D01*
X159157142Y-65738095D01*
X159061904Y-65690476D01*
X158823809Y-65690476D01*
X158728571Y-65738095D01*
X158680952Y-65785714D01*
X158633333Y-65880952D01*
X158633333Y-66071428D01*
X158680952Y-66166666D01*
X158728571Y-66214285D01*
X158823809Y-66261904D01*
X159347619Y-65500000D02*
X159347619Y-64738095D01*
X158728571Y-64166666D02*
X158728571Y-64500000D01*
X159252380Y-64500000D02*
X158252380Y-64500000D01*
X158252380Y-64023809D01*
X159204761Y-63261904D02*
X159252380Y-63357142D01*
X159252380Y-63547619D01*
X159204761Y-63642857D01*
X159109523Y-63690476D01*
X158728571Y-63690476D01*
X158633333Y-63642857D01*
X158585714Y-63547619D01*
X158585714Y-63357142D01*
X158633333Y-63261904D01*
X158728571Y-63214285D01*
X158823809Y-63214285D01*
X158919047Y-63690476D01*
X159252380Y-62785714D02*
X158585714Y-62785714D01*
X158680952Y-62785714D02*
X158633333Y-62738095D01*
X158585714Y-62642857D01*
X158585714Y-62500000D01*
X158633333Y-62404761D01*
X158728571Y-62357142D01*
X159252380Y-62357142D01*
X158728571Y-62357142D02*
X158633333Y-62309523D01*
X158585714Y-62214285D01*
X158585714Y-62071428D01*
X158633333Y-61976190D01*
X158728571Y-61928571D01*
X159252380Y-61928571D01*
X159252380Y-61023809D02*
X158728571Y-61023809D01*
X158633333Y-61071428D01*
X158585714Y-61166666D01*
X158585714Y-61357142D01*
X158633333Y-61452380D01*
X159204761Y-61023809D02*
X159252380Y-61119047D01*
X159252380Y-61357142D01*
X159204761Y-61452380D01*
X159109523Y-61500000D01*
X159014285Y-61500000D01*
X158919047Y-61452380D01*
X158871428Y-61357142D01*
X158871428Y-61119047D01*
X158823809Y-61023809D01*
X159252380Y-60404761D02*
X159204761Y-60500000D01*
X159109523Y-60547619D01*
X158252380Y-60547619D01*
X159204761Y-59642857D02*
X159252380Y-59738095D01*
X159252380Y-59928571D01*
X159204761Y-60023809D01*
X159109523Y-60071428D01*
X158728571Y-60071428D01*
X158633333Y-60023809D01*
X158585714Y-59928571D01*
X158585714Y-59738095D01*
X158633333Y-59642857D01*
X158728571Y-59595238D01*
X158823809Y-59595238D01*
X158919047Y-60071428D01*
X155662380Y-67643333D02*
X156376666Y-67643333D01*
X156519523Y-67690952D01*
X156614761Y-67786190D01*
X156662380Y-67929047D01*
X156662380Y-68024285D01*
X155662380Y-66738571D02*
X155662380Y-66929047D01*
X155710000Y-67024285D01*
X155757619Y-67071904D01*
X155900476Y-67167142D01*
X156090952Y-67214761D01*
X156471904Y-67214761D01*
X156567142Y-67167142D01*
X156614761Y-67119523D01*
X156662380Y-67024285D01*
X156662380Y-66833809D01*
X156614761Y-66738571D01*
X156567142Y-66690952D01*
X156471904Y-66643333D01*
X156233809Y-66643333D01*
X156138571Y-66690952D01*
X156090952Y-66738571D01*
X156043333Y-66833809D01*
X156043333Y-67024285D01*
X156090952Y-67119523D01*
X156138571Y-67167142D01*
X156233809Y-67214761D01*
X213557142Y-70433333D02*
X213604761Y-70480952D01*
X213652380Y-70623809D01*
X213652380Y-70719047D01*
X213604761Y-70861904D01*
X213509523Y-70957142D01*
X213414285Y-71004761D01*
X213223809Y-71052380D01*
X213080952Y-71052380D01*
X212890476Y-71004761D01*
X212795238Y-70957142D01*
X212700000Y-70861904D01*
X212652380Y-70719047D01*
X212652380Y-70623809D01*
X212700000Y-70480952D01*
X212747619Y-70433333D01*
X213652380Y-69861904D02*
X213604761Y-69957142D01*
X213557142Y-70004761D01*
X213461904Y-70052380D01*
X213176190Y-70052380D01*
X213080952Y-70004761D01*
X213033333Y-69957142D01*
X212985714Y-69861904D01*
X212985714Y-69719047D01*
X213033333Y-69623809D01*
X213080952Y-69576190D01*
X213176190Y-69528571D01*
X213461904Y-69528571D01*
X213557142Y-69576190D01*
X213604761Y-69623809D01*
X213652380Y-69719047D01*
X213652380Y-69861904D01*
X212985714Y-69100000D02*
X213652380Y-69100000D01*
X213080952Y-69100000D02*
X213033333Y-69052380D01*
X212985714Y-68957142D01*
X212985714Y-68814285D01*
X213033333Y-68719047D01*
X213128571Y-68671428D01*
X213652380Y-68671428D01*
X212985714Y-68195238D02*
X213652380Y-68195238D01*
X213080952Y-68195238D02*
X213033333Y-68147619D01*
X212985714Y-68052380D01*
X212985714Y-67909523D01*
X213033333Y-67814285D01*
X213128571Y-67766666D01*
X213652380Y-67766666D01*
X213747619Y-67528571D02*
X213747619Y-66766666D01*
X212652380Y-66338095D02*
X212652380Y-66242857D01*
X212700000Y-66147619D01*
X212747619Y-66100000D01*
X212842857Y-66052380D01*
X213033333Y-66004761D01*
X213271428Y-66004761D01*
X213461904Y-66052380D01*
X213557142Y-66100000D01*
X213604761Y-66147619D01*
X213652380Y-66242857D01*
X213652380Y-66338095D01*
X213604761Y-66433333D01*
X213557142Y-66480952D01*
X213461904Y-66528571D01*
X213271428Y-66576190D01*
X213033333Y-66576190D01*
X212842857Y-66528571D01*
X212747619Y-66480952D01*
X212700000Y-66433333D01*
X212652380Y-66338095D01*
X213652380Y-65052380D02*
X213652380Y-65623809D01*
X213652380Y-65338095D02*
X212652380Y-65338095D01*
X212795238Y-65433333D01*
X212890476Y-65528571D01*
X212938095Y-65623809D01*
X213652380Y-64719047D02*
X212985714Y-64195238D01*
X212985714Y-64719047D02*
X213652380Y-64195238D01*
X212652380Y-63623809D02*
X212652380Y-63528571D01*
X212700000Y-63433333D01*
X212747619Y-63385714D01*
X212842857Y-63338095D01*
X213033333Y-63290476D01*
X213271428Y-63290476D01*
X213461904Y-63338095D01*
X213557142Y-63385714D01*
X213604761Y-63433333D01*
X213652380Y-63528571D01*
X213652380Y-63623809D01*
X213604761Y-63719047D01*
X213557142Y-63766666D01*
X213461904Y-63814285D01*
X213271428Y-63861904D01*
X213033333Y-63861904D01*
X212842857Y-63814285D01*
X212747619Y-63766666D01*
X212700000Y-63719047D01*
X212652380Y-63623809D01*
X212652380Y-62957142D02*
X212652380Y-62338095D01*
X213033333Y-62671428D01*
X213033333Y-62528571D01*
X213080952Y-62433333D01*
X213128571Y-62385714D01*
X213223809Y-62338095D01*
X213461904Y-62338095D01*
X213557142Y-62385714D01*
X213604761Y-62433333D01*
X213652380Y-62528571D01*
X213652380Y-62814285D01*
X213604761Y-62909523D01*
X213557142Y-62957142D01*
X213747619Y-62147619D02*
X213747619Y-61385714D01*
X213652380Y-61147619D02*
X212652380Y-61147619D01*
X213366666Y-60814285D01*
X212652380Y-60480952D01*
X213652380Y-60480952D01*
X213652380Y-59576190D02*
X213128571Y-59576190D01*
X213033333Y-59623809D01*
X212985714Y-59719047D01*
X212985714Y-59909523D01*
X213033333Y-60004761D01*
X213604761Y-59576190D02*
X213652380Y-59671428D01*
X213652380Y-59909523D01*
X213604761Y-60004761D01*
X213509523Y-60052380D01*
X213414285Y-60052380D01*
X213319047Y-60004761D01*
X213271428Y-59909523D01*
X213271428Y-59671428D01*
X213223809Y-59576190D01*
X213652380Y-58957142D02*
X213604761Y-59052380D01*
X213509523Y-59100000D01*
X212652380Y-59100000D01*
X213604761Y-58195238D02*
X213652380Y-58290476D01*
X213652380Y-58480952D01*
X213604761Y-58576190D01*
X213509523Y-58623809D01*
X213128571Y-58623809D01*
X213033333Y-58576190D01*
X212985714Y-58480952D01*
X212985714Y-58290476D01*
X213033333Y-58195238D01*
X213128571Y-58147619D01*
X213223809Y-58147619D01*
X213319047Y-58623809D01*
X207732380Y-66373333D02*
X208446666Y-66373333D01*
X208589523Y-66420952D01*
X208684761Y-66516190D01*
X208732380Y-66659047D01*
X208732380Y-66754285D01*
X208732380Y-65373333D02*
X208732380Y-65944761D01*
X208732380Y-65659047D02*
X207732380Y-65659047D01*
X207875238Y-65754285D01*
X207970476Y-65849523D01*
X208018095Y-65944761D01*
X150852380Y-99838095D02*
X149852380Y-99838095D01*
X149852380Y-99457142D01*
X149900000Y-99361904D01*
X149947619Y-99314285D01*
X150042857Y-99266666D01*
X150185714Y-99266666D01*
X150280952Y-99314285D01*
X150328571Y-99361904D01*
X150376190Y-99457142D01*
X150376190Y-99838095D01*
X150852380Y-98838095D02*
X150185714Y-98838095D01*
X149852380Y-98838095D02*
X149900000Y-98885714D01*
X149947619Y-98838095D01*
X149900000Y-98790476D01*
X149852380Y-98838095D01*
X149947619Y-98838095D01*
X150185714Y-98361904D02*
X150852380Y-98361904D01*
X150280952Y-98361904D02*
X150233333Y-98314285D01*
X150185714Y-98219047D01*
X150185714Y-98076190D01*
X150233333Y-97980952D01*
X150328571Y-97933333D01*
X150852380Y-97933333D01*
X150804761Y-97504761D02*
X150852380Y-97361904D01*
X150852380Y-97123809D01*
X150804761Y-97028571D01*
X150757142Y-96980952D01*
X150661904Y-96933333D01*
X150566666Y-96933333D01*
X150471428Y-96980952D01*
X150423809Y-97028571D01*
X150376190Y-97123809D01*
X150328571Y-97314285D01*
X150280952Y-97409523D01*
X150233333Y-97457142D01*
X150138095Y-97504761D01*
X150042857Y-97504761D01*
X149947619Y-97457142D01*
X149900000Y-97409523D01*
X149852380Y-97314285D01*
X149852380Y-97076190D01*
X149900000Y-96933333D01*
X150852380Y-96361904D02*
X150804761Y-96457142D01*
X150757142Y-96504761D01*
X150661904Y-96552380D01*
X150376190Y-96552380D01*
X150280952Y-96504761D01*
X150233333Y-96457142D01*
X150185714Y-96361904D01*
X150185714Y-96219047D01*
X150233333Y-96123809D01*
X150280952Y-96076190D01*
X150376190Y-96028571D01*
X150661904Y-96028571D01*
X150757142Y-96076190D01*
X150804761Y-96123809D01*
X150852380Y-96219047D01*
X150852380Y-96361904D01*
X150804761Y-95171428D02*
X150852380Y-95266666D01*
X150852380Y-95457142D01*
X150804761Y-95552380D01*
X150757142Y-95600000D01*
X150661904Y-95647619D01*
X150376190Y-95647619D01*
X150280952Y-95600000D01*
X150233333Y-95552380D01*
X150185714Y-95457142D01*
X150185714Y-95266666D01*
X150233333Y-95171428D01*
X150852380Y-94742857D02*
X149852380Y-94742857D01*
X150471428Y-94647619D02*
X150852380Y-94361904D01*
X150185714Y-94361904D02*
X150566666Y-94742857D01*
X150804761Y-93552380D02*
X150852380Y-93647619D01*
X150852380Y-93838095D01*
X150804761Y-93933333D01*
X150709523Y-93980952D01*
X150328571Y-93980952D01*
X150233333Y-93933333D01*
X150185714Y-93838095D01*
X150185714Y-93647619D01*
X150233333Y-93552380D01*
X150328571Y-93504761D01*
X150423809Y-93504761D01*
X150519047Y-93980952D01*
X150185714Y-93219047D02*
X150185714Y-92838095D01*
X149852380Y-93076190D02*
X150709523Y-93076190D01*
X150804761Y-93028571D01*
X150852380Y-92933333D01*
X150852380Y-92838095D01*
X150947619Y-92742857D02*
X150947619Y-91980952D01*
X150852380Y-91219047D02*
X150852380Y-91790476D01*
X150852380Y-91504761D02*
X149852380Y-91504761D01*
X149995238Y-91600000D01*
X150090476Y-91695238D01*
X150138095Y-91790476D01*
X150852380Y-90885714D02*
X150185714Y-90361904D01*
X150185714Y-90885714D02*
X150852380Y-90361904D01*
X149852380Y-89790476D02*
X149852380Y-89695238D01*
X149900000Y-89600000D01*
X149947619Y-89552380D01*
X150042857Y-89504761D01*
X150233333Y-89457142D01*
X150471428Y-89457142D01*
X150661904Y-89504761D01*
X150757142Y-89552380D01*
X150804761Y-89600000D01*
X150852380Y-89695238D01*
X150852380Y-89790476D01*
X150804761Y-89885714D01*
X150757142Y-89933333D01*
X150661904Y-89980952D01*
X150471428Y-90028571D01*
X150233333Y-90028571D01*
X150042857Y-89980952D01*
X149947619Y-89933333D01*
X149900000Y-89885714D01*
X149852380Y-89790476D01*
X149852380Y-89123809D02*
X149852380Y-88504761D01*
X150233333Y-88838095D01*
X150233333Y-88695238D01*
X150280952Y-88600000D01*
X150328571Y-88552380D01*
X150423809Y-88504761D01*
X150661904Y-88504761D01*
X150757142Y-88552380D01*
X150804761Y-88600000D01*
X150852380Y-88695238D01*
X150852380Y-88980952D01*
X150804761Y-89076190D01*
X150757142Y-89123809D01*
X150947619Y-88314285D02*
X150947619Y-87552380D01*
X150852380Y-87314285D02*
X149852380Y-87314285D01*
X149852380Y-86933333D01*
X149900000Y-86838095D01*
X149947619Y-86790476D01*
X150042857Y-86742857D01*
X150185714Y-86742857D01*
X150280952Y-86790476D01*
X150328571Y-86838095D01*
X150376190Y-86933333D01*
X150376190Y-87314285D01*
X149947619Y-86361904D02*
X149900000Y-86314285D01*
X149852380Y-86219047D01*
X149852380Y-85980952D01*
X149900000Y-85885714D01*
X149947619Y-85838095D01*
X150042857Y-85790476D01*
X150138095Y-85790476D01*
X150280952Y-85838095D01*
X150852380Y-86409523D01*
X150852380Y-85790476D01*
X150757142Y-85361904D02*
X150804761Y-85314285D01*
X150852380Y-85361904D01*
X150804761Y-85409523D01*
X150757142Y-85361904D01*
X150852380Y-85361904D01*
X149852380Y-84409523D02*
X149852380Y-84885714D01*
X150328571Y-84933333D01*
X150280952Y-84885714D01*
X150233333Y-84790476D01*
X150233333Y-84552380D01*
X150280952Y-84457142D01*
X150328571Y-84409523D01*
X150423809Y-84361904D01*
X150661904Y-84361904D01*
X150757142Y-84409523D01*
X150804761Y-84457142D01*
X150852380Y-84552380D01*
X150852380Y-84790476D01*
X150804761Y-84885714D01*
X150757142Y-84933333D01*
X150185714Y-83504761D02*
X150852380Y-83504761D01*
X149804761Y-83742857D02*
X150519047Y-83980952D01*
X150519047Y-83361904D01*
X150852380Y-82980952D02*
X150185714Y-82980952D01*
X150280952Y-82980952D02*
X150233333Y-82933333D01*
X150185714Y-82838095D01*
X150185714Y-82695238D01*
X150233333Y-82600000D01*
X150328571Y-82552380D01*
X150852380Y-82552380D01*
X150328571Y-82552380D02*
X150233333Y-82504761D01*
X150185714Y-82409523D01*
X150185714Y-82266666D01*
X150233333Y-82171428D01*
X150328571Y-82123809D01*
X150852380Y-82123809D01*
X150852380Y-81647619D02*
X150185714Y-81647619D01*
X150280952Y-81647619D02*
X150233333Y-81600000D01*
X150185714Y-81504761D01*
X150185714Y-81361904D01*
X150233333Y-81266666D01*
X150328571Y-81219047D01*
X150852380Y-81219047D01*
X150328571Y-81219047D02*
X150233333Y-81171428D01*
X150185714Y-81076190D01*
X150185714Y-80933333D01*
X150233333Y-80838095D01*
X150328571Y-80790476D01*
X150852380Y-80790476D01*
X150947619Y-80552380D02*
X150947619Y-79790476D01*
X149852380Y-79695238D02*
X150852380Y-79361904D01*
X149852380Y-79028571D01*
X150804761Y-78314285D02*
X150852380Y-78409523D01*
X150852380Y-78600000D01*
X150804761Y-78695238D01*
X150709523Y-78742857D01*
X150328571Y-78742857D01*
X150233333Y-78695238D01*
X150185714Y-78600000D01*
X150185714Y-78409523D01*
X150233333Y-78314285D01*
X150328571Y-78266666D01*
X150423809Y-78266666D01*
X150519047Y-78742857D01*
X150852380Y-77838095D02*
X150185714Y-77838095D01*
X150376190Y-77838095D02*
X150280952Y-77790476D01*
X150233333Y-77742857D01*
X150185714Y-77647619D01*
X150185714Y-77552380D01*
X150185714Y-77361904D02*
X150185714Y-76980952D01*
X149852380Y-77219047D02*
X150709523Y-77219047D01*
X150804761Y-77171428D01*
X150852380Y-77076190D01*
X150852380Y-76980952D01*
X150852380Y-76647619D02*
X150185714Y-76647619D01*
X149852380Y-76647619D02*
X149900000Y-76695238D01*
X149947619Y-76647619D01*
X149900000Y-76600000D01*
X149852380Y-76647619D01*
X149947619Y-76647619D01*
X150804761Y-75742857D02*
X150852380Y-75838095D01*
X150852380Y-76028571D01*
X150804761Y-76123809D01*
X150757142Y-76171428D01*
X150661904Y-76219047D01*
X150376190Y-76219047D01*
X150280952Y-76171428D01*
X150233333Y-76123809D01*
X150185714Y-76028571D01*
X150185714Y-75838095D01*
X150233333Y-75742857D01*
X150852380Y-74885714D02*
X150328571Y-74885714D01*
X150233333Y-74933333D01*
X150185714Y-75028571D01*
X150185714Y-75219047D01*
X150233333Y-75314285D01*
X150804761Y-74885714D02*
X150852380Y-74980952D01*
X150852380Y-75219047D01*
X150804761Y-75314285D01*
X150709523Y-75361904D01*
X150614285Y-75361904D01*
X150519047Y-75314285D01*
X150471428Y-75219047D01*
X150471428Y-74980952D01*
X150423809Y-74885714D01*
X150852380Y-74266666D02*
X150804761Y-74361904D01*
X150709523Y-74409523D01*
X149852380Y-74409523D01*
X163852380Y-83990476D02*
X162852380Y-83990476D01*
X162852380Y-83609523D01*
X162900000Y-83514285D01*
X162947619Y-83466666D01*
X163042857Y-83419047D01*
X163185714Y-83419047D01*
X163280952Y-83466666D01*
X163328571Y-83514285D01*
X163376190Y-83609523D01*
X163376190Y-83990476D01*
X163852380Y-82847619D02*
X163804761Y-82942857D01*
X163709523Y-82990476D01*
X162852380Y-82990476D01*
X163852380Y-82038095D02*
X163328571Y-82038095D01*
X163233333Y-82085714D01*
X163185714Y-82180952D01*
X163185714Y-82371428D01*
X163233333Y-82466666D01*
X163804761Y-82038095D02*
X163852380Y-82133333D01*
X163852380Y-82371428D01*
X163804761Y-82466666D01*
X163709523Y-82514285D01*
X163614285Y-82514285D01*
X163519047Y-82466666D01*
X163471428Y-82371428D01*
X163471428Y-82133333D01*
X163423809Y-82038095D01*
X163804761Y-81133333D02*
X163852380Y-81228571D01*
X163852380Y-81419047D01*
X163804761Y-81514285D01*
X163757142Y-81561904D01*
X163661904Y-81609523D01*
X163376190Y-81609523D01*
X163280952Y-81561904D01*
X163233333Y-81514285D01*
X163185714Y-81419047D01*
X163185714Y-81228571D01*
X163233333Y-81133333D01*
X163804761Y-80323809D02*
X163852380Y-80419047D01*
X163852380Y-80609523D01*
X163804761Y-80704761D01*
X163709523Y-80752380D01*
X163328571Y-80752380D01*
X163233333Y-80704761D01*
X163185714Y-80609523D01*
X163185714Y-80419047D01*
X163233333Y-80323809D01*
X163328571Y-80276190D01*
X163423809Y-80276190D01*
X163519047Y-80752380D01*
X163852380Y-79085714D02*
X162852380Y-79085714D01*
X163566666Y-78752380D01*
X162852380Y-78419047D01*
X163852380Y-78419047D01*
X163852380Y-77800000D02*
X163804761Y-77895238D01*
X163757142Y-77942857D01*
X163661904Y-77990476D01*
X163376190Y-77990476D01*
X163280952Y-77942857D01*
X163233333Y-77895238D01*
X163185714Y-77800000D01*
X163185714Y-77657142D01*
X163233333Y-77561904D01*
X163280952Y-77514285D01*
X163376190Y-77466666D01*
X163661904Y-77466666D01*
X163757142Y-77514285D01*
X163804761Y-77561904D01*
X163852380Y-77657142D01*
X163852380Y-77800000D01*
X163852380Y-76609523D02*
X162852380Y-76609523D01*
X163804761Y-76609523D02*
X163852380Y-76704761D01*
X163852380Y-76895238D01*
X163804761Y-76990476D01*
X163757142Y-77038095D01*
X163661904Y-77085714D01*
X163376190Y-77085714D01*
X163280952Y-77038095D01*
X163233333Y-76990476D01*
X163185714Y-76895238D01*
X163185714Y-76704761D01*
X163233333Y-76609523D01*
X166272380Y-91140476D02*
X165796190Y-91473809D01*
X166272380Y-91711904D02*
X165272380Y-91711904D01*
X165272380Y-91330952D01*
X165320000Y-91235714D01*
X165367619Y-91188095D01*
X165462857Y-91140476D01*
X165605714Y-91140476D01*
X165700952Y-91188095D01*
X165748571Y-91235714D01*
X165796190Y-91330952D01*
X165796190Y-91711904D01*
X162432380Y-91616666D02*
X161956190Y-91950000D01*
X162432380Y-92188095D02*
X161432380Y-92188095D01*
X161432380Y-91807142D01*
X161480000Y-91711904D01*
X161527619Y-91664285D01*
X161622857Y-91616666D01*
X161765714Y-91616666D01*
X161860952Y-91664285D01*
X161908571Y-91711904D01*
X161956190Y-91807142D01*
X161956190Y-92188095D01*
X162432380Y-90664285D02*
X162432380Y-91235714D01*
X162432380Y-90950000D02*
X161432380Y-90950000D01*
X161575238Y-91045238D01*
X161670476Y-91140476D01*
X161718095Y-91235714D01*
X155761904Y-77452380D02*
X155285714Y-77452380D01*
X155285714Y-76452380D01*
X156095238Y-76928571D02*
X156428571Y-76928571D01*
X156571428Y-77452380D02*
X156095238Y-77452380D01*
X156095238Y-76452380D01*
X156571428Y-76452380D01*
X157000000Y-77452380D02*
X157000000Y-76452380D01*
X157238095Y-76452380D01*
X157380952Y-76500000D01*
X157476190Y-76595238D01*
X157523809Y-76690476D01*
X157571428Y-76880952D01*
X157571428Y-77023809D01*
X157523809Y-77214285D01*
X157476190Y-77309523D01*
X157380952Y-77404761D01*
X157238095Y-77452380D01*
X157000000Y-77452380D01*
X157761904Y-77547619D02*
X158523809Y-77547619D01*
X158714285Y-77166666D02*
X159190476Y-77166666D01*
X158619047Y-77452380D02*
X158952380Y-76452380D01*
X159285714Y-77452380D01*
X160095238Y-77452380D02*
X159619047Y-77452380D01*
X159619047Y-76452380D01*
X160285714Y-76452380D02*
X160857142Y-76452380D01*
X160571428Y-77452380D02*
X160571428Y-76452380D01*
X159921904Y-81466666D02*
X160398095Y-81466666D01*
X159826666Y-81752380D02*
X160160000Y-80752380D01*
X160493333Y-81752380D01*
X156016904Y-75727380D02*
X156016904Y-74727380D01*
X157064523Y-75727380D02*
X156731190Y-75251190D01*
X156493095Y-75727380D02*
X156493095Y-74727380D01*
X156874047Y-74727380D01*
X156969285Y-74775000D01*
X157016904Y-74822619D01*
X157064523Y-74917857D01*
X157064523Y-75060714D01*
X157016904Y-75155952D01*
X156969285Y-75203571D01*
X156874047Y-75251190D01*
X156493095Y-75251190D01*
X158731190Y-75727380D02*
X158255000Y-75727380D01*
X158255000Y-74727380D01*
X159064523Y-75203571D02*
X159397857Y-75203571D01*
X159540714Y-75727380D02*
X159064523Y-75727380D01*
X159064523Y-74727380D01*
X159540714Y-74727380D01*
X159969285Y-75727380D02*
X159969285Y-74727380D01*
X160207380Y-74727380D01*
X160350238Y-74775000D01*
X160445476Y-74870238D01*
X160493095Y-74965476D01*
X160540714Y-75155952D01*
X160540714Y-75298809D01*
X160493095Y-75489285D01*
X160445476Y-75584523D01*
X160350238Y-75679761D01*
X160207380Y-75727380D01*
X159969285Y-75727380D01*
D11*
X195512500Y-73023605D02*
X196012500Y-73023605D01*
X195762500Y-73273605D02*
X195762500Y-72773605D01*
X199350000Y-71140000D02*
G75*
G03*
X199350000Y-71140000I-2500000J0D01*
G01*
X183967500Y-67696395D02*
X183967500Y-68196395D01*
X184217500Y-67946395D02*
X183717500Y-67946395D01*
X185380000Y-69830000D02*
G75*
G03*
X185380000Y-69830000I-2500000J0D01*
G01*
X166302500Y-112393605D02*
X166802500Y-112393605D01*
X166552500Y-112643605D02*
X166552500Y-112143605D01*
X170140000Y-110510000D02*
G75*
G03*
X170140000Y-110510000I-2500000J0D01*
G01*
X166302500Y-104773605D02*
X166802500Y-104773605D01*
X166552500Y-105023605D02*
X166552500Y-104523605D01*
X170140000Y-102890000D02*
G75*
G03*
X170140000Y-102890000I-2500000J0D01*
G01*
X174416395Y-72572500D02*
X174916395Y-72572500D01*
X174666395Y-72322500D02*
X174666395Y-72822500D01*
X179050000Y-73660000D02*
G75*
G03*
X179050000Y-73660000I-2500000J0D01*
G01*
X204550000Y-60900000D02*
X201850000Y-60900000D01*
X201850000Y-66100000D02*
X204550000Y-66100000D01*
X204550000Y-66100000D02*
X204550000Y-60900000D01*
X201850000Y-60900000D02*
X201850000Y-66100000D01*
X204550000Y-61580000D02*
X201850000Y-61580000D01*
X203200000Y-68580000D02*
X203200000Y-66100000D01*
X203200000Y-58420000D02*
X203200000Y-60900000D01*
X204550000Y-61780000D02*
X201850000Y-61780000D01*
X204550000Y-61680000D02*
X201850000Y-61680000D01*
X170180000Y-62230000D02*
X170180000Y-58420000D01*
X172785000Y-62230000D02*
G75*
G03*
X172785000Y-62230000I-2605000J0D01*
G01*
X172720000Y-73660000D02*
X172720000Y-68580000D01*
X173520000Y-73660000D02*
G75*
G03*
X173520000Y-73660000I-800000J0D01*
G01*
X177800000Y-64770000D02*
X177800000Y-59690000D01*
X178600000Y-64770000D02*
G75*
G03*
X178600000Y-64770000I-800000J0D01*
G01*
X168800000Y-74820000D02*
X161400000Y-74820000D01*
X161400000Y-67420000D02*
X168800000Y-67420000D01*
X168800000Y-67420000D02*
X168800000Y-74820000D01*
X161400000Y-74820000D02*
X161400000Y-67420000D01*
X188620000Y-61650000D02*
X189890000Y-61650000D01*
X193020000Y-58500000D02*
X188620000Y-58500000D01*
X193020000Y-68500000D02*
X193020000Y-58500000D01*
X188620000Y-65350000D02*
X189890000Y-65350000D01*
X188620000Y-68500000D02*
X193020000Y-68500000D01*
X189890000Y-68500000D02*
X189890000Y-58500000D01*
X188620000Y-58500000D02*
X188620000Y-68500000D01*
X179705000Y-78470000D02*
X180705000Y-77470000D01*
X186055000Y-77470000D02*
X186055000Y-113030000D01*
X179705000Y-113030000D02*
X179705000Y-78470000D01*
X180705000Y-77470000D02*
X186055000Y-77470000D01*
X186055000Y-113030000D02*
X179705000Y-113030000D01*
X169640000Y-94540000D02*
X169640000Y-88540000D01*
X169965000Y-94665000D02*
X169965000Y-88415000D01*
X165640000Y-94540000D02*
X165640000Y-88540000D01*
X165315000Y-94665000D02*
X165315000Y-88415000D01*
X169965000Y-88415000D02*
G75*
G03*
X165315000Y-88415000I-2325000J0D01*
G01*
X165640000Y-94540000D02*
G75*
G03*
X169640000Y-94540000I2000000J0D01*
G01*
X169640000Y-88540000D02*
G75*
G03*
X165640000Y-88540000I-2000000J0D01*
G01*
X165315000Y-94665000D02*
G75*
G03*
X169965000Y-94665000I2325000J0D01*
G01*
X191770000Y-77470000D02*
X191770000Y-94615000D01*
X189230000Y-77470000D02*
X191770000Y-77470000D01*
X191770000Y-94615000D02*
X191135000Y-95250000D01*
X191135000Y-95250000D02*
X189230000Y-95250000D01*
X189230000Y-95250000D02*
X189230000Y-77470000D01*
X189230000Y-113030000D02*
X189230000Y-97790000D01*
X191770000Y-97790000D02*
X191770000Y-112395000D01*
X191770000Y-112395000D02*
X191135000Y-113030000D01*
X191135000Y-113030000D02*
X189230000Y-113030000D01*
X189230000Y-97790000D02*
X191770000Y-97790000D01*
X173990000Y-97790000D02*
X173990000Y-78105000D01*
X173990000Y-78105000D02*
X174625000Y-77470000D01*
X174625000Y-77470000D02*
X176530000Y-77470000D01*
X176530000Y-77470000D02*
X176530000Y-97790000D01*
X176530000Y-97790000D02*
X173990000Y-97790000D01*
X173990000Y-111770000D02*
X173990000Y-102245000D01*
X174625000Y-101610000D02*
X176530000Y-101610000D01*
X176530000Y-101610000D02*
X176530000Y-111770000D01*
X173990000Y-102245000D02*
X174625000Y-101610000D01*
X176530000Y-111770000D02*
X173990000Y-111770000D01*
X154940000Y-74930000D02*
X154940000Y-60325000D01*
X157480000Y-74930000D02*
X154940000Y-74930000D01*
X154940000Y-60325000D02*
X155575000Y-59690000D01*
X155575000Y-59690000D02*
X157480000Y-59690000D01*
X157480000Y-59690000D02*
X157480000Y-74930000D01*
X207010000Y-62230000D02*
X209550000Y-62230000D01*
X209550000Y-69215000D02*
X208915000Y-69850000D01*
X207010000Y-69850000D02*
X207010000Y-62230000D01*
X208915000Y-69850000D02*
X207010000Y-69850000D01*
X209550000Y-62230000D02*
X209550000Y-69215000D01*
X166530000Y-76905000D02*
X168435000Y-76905000D01*
X166530000Y-84525000D02*
X166530000Y-76905000D01*
X169070000Y-84525000D02*
X166530000Y-84525000D01*
X168435000Y-76905000D02*
X169070000Y-77540000D01*
X169070000Y-77540000D02*
X169070000Y-84525000D01*
X163900000Y-93990000D02*
X163900000Y-88910000D01*
X164700000Y-93990000D02*
G75*
G03*
X164700000Y-93990000I-800000J0D01*
G01*
X156350000Y-79000000D02*
X160160000Y-79000000D01*
X158955000Y-79000000D02*
G75*
G03*
X158955000Y-79000000I-2605000J0D01*
G01*
M02*
